<svg width="120" height="120" viewBox="0 0 120 120" fill="none" xmlns="http://www.w3.org/2000/svg">
<circle cx="60" cy="60" r="60" fill="#00B1A7"/>
<path d="M16.1064 53.2C21.9649 59.9309 31.8618 61.6844 39.6542 57.216C47.2191 52.8607 50.8025 42.8492 51.997 34.7042C52.5658 30.9711 52.2245 26.7855 49.3805 23.9574C46.5935 21.1859 42.8963 22.0909 40.7918 25.2018C38.2323 29.048 36.924 34.3083 35.6727 38.6636C34.3076 43.3582 33.3407 48.166 32.6581 53.0304C31.1224 64.5125 31.5774 76.1643 33.9663 87.4767C34.5351 90.3048 39.0286 89.6261 38.9717 86.798C38.8011 79.5015 39.9386 71.5828 43.2376 64.965C44.4321 62.5894 47.1623 59.026 50.2906 60.7794C52.5658 62.0803 53.3052 65.474 53.6465 67.8497C54.0446 70.6778 53.9877 73.6756 53.4758 76.5037C53.1914 77.9177 52.7933 79.3318 52.2245 80.6327C51.4851 82.273 50.2906 83.3477 49.2668 84.7617C49.0961 84.8749 48.8686 84.9314 48.698 85.0445C49.153 86.8545 49.7218 87.0808 50.4044 85.6667C50.8594 85.1577 51.3144 84.592 51.7694 84.083C53.0208 82.6124 54.2721 81.1983 55.5803 79.7843C58.1399 76.8996 60.7563 74.1281 63.259 71.2434C72.0752 61.1753 80.4933 49.7498 82.541 36.1748C83.2804 31.0842 82.5978 23.618 75.943 23.1655C69.2313 22.713 67.1836 29.953 66.5011 35.1567C65.3635 43.7542 65.591 52.4647 65.9892 61.1188C66.3873 69.8859 66.8424 78.653 67.2974 87.4767C67.468 90.8139 72.0752 90.7008 72.4165 87.4767C72.9284 82.6689 73.7247 77.9177 74.8623 73.2231C75.3742 71.0171 75.9999 68.8678 76.6824 66.6618C77.0237 65.5872 77.7631 61.7409 79.2989 61.5147C81.9153 61.1188 83.2235 70.3384 83.6785 71.9221C84.7024 75.8815 85.6693 80.1236 88.3995 83.2911C90.7884 86.0627 94.4287 87.8161 98.1258 87.0808C101.595 86.402 103.529 83.9699 105.236 81.2549C106.316 79.6146 107.568 78.144 108.535 76.3905C113.597 67.0578 114.052 55.9716 111.151 45.847C106.942 31.0842 97.1588 17.4528 82.5978 11.5137C61.382 2.80315 36.0709 6.98875 19.576 22.9958C15.3101 27.1249 11.8404 32.1024 9.62216 37.5889C7.11949 43.8673 6.83509 50.4285 7.17637 57.0463C7.80204 69.2071 10.646 81.2549 18.3246 90.9836C22.1355 95.7914 26.9134 99.7507 32.0893 103.031C38.5167 107.16 45.6265 110.724 53.1914 112.194C63.4296 114.174 74.5779 112.251 83.0529 106.029C83.6785 105.577 84.3042 105.124 84.873 104.615C87.3188 102.409 83.6785 98.7892 81.2327 100.995C80.0952 102.07 78.275 103.144 76.398 104.163C72.0183 106.482 67.1268 107.726 62.1783 107.896C49.153 108.292 35.5021 100.939 26.2877 92.1148C18.2109 84.3658 14.1156 74.1281 12.8074 63.155C12.068 56.9897 11.556 50.2588 12.978 44.1501C14.2294 38.7201 16.9027 33.6295 20.5429 29.4439C27.2546 21.6949 36.6965 16.1518 46.5935 13.55C56.2629 10.9481 67.6387 11.9662 77.0806 14.9075C91.4709 19.3759 101.14 31.5933 105.691 45.5642C108.648 54.7838 108.762 65.0781 104.098 73.7321C103.529 74.7502 102.904 75.7683 102.221 76.7299C101.766 77.4087 102.107 76.7299 101.595 77.5218C99.7753 80.1236 97.8983 83.3477 94.1443 81.4246C90.3334 79.3883 89.5371 74.1846 88.5132 70.4515C87.2619 65.5872 85.7262 54.7272 78.2181 56.4241C75.2036 57.1028 73.5541 59.8178 72.5303 62.5328C71.0514 66.4922 70.0276 70.6778 69.1744 74.8068C68.3212 78.9358 67.6955 83.1214 67.2405 87.3636C68.9469 87.3636 70.6533 87.3636 72.3596 87.3636C71.9046 78.5965 71.4496 69.8293 71.0514 61.0056C70.6533 52.691 70.3689 44.3764 71.3927 36.1183C71.6202 34.1386 72.5871 26.333 76.3411 28.4258C79.4126 30.1792 77.1375 37.3061 76.4549 39.7948C74.4641 47.0348 70.5395 53.6525 66.0461 59.6481C61.1545 66.1528 55.4666 71.9787 50.12 78.0874C48.243 80.2368 44.8871 82.8952 44.5458 85.893C44.2046 88.8908 46.9916 90.5311 49.7218 89.9655C55.5803 88.7211 58.1399 80.5761 58.7656 75.4855C59.4481 69.9425 59.1068 63.0419 55.4097 58.5735C50.4612 52.5779 42.5551 55.7453 39.2561 61.6278C35.047 69.0375 33.7388 78.4833 33.9095 86.798C35.559 86.5717 37.2653 86.3455 38.9148 86.1192C35.047 67.6234 36.4121 46.9782 44.2614 29.6136C44.4889 29.1611 45.0577 27.4643 45.6265 27.4643C46.2522 27.4643 46.7641 29.1611 46.9347 29.6136C47.4466 31.4236 47.1054 33.5164 46.7072 35.3264C45.7972 39.3423 44.4889 43.641 42.4413 47.261C37.5497 55.8585 26.2308 56.9897 19.7466 49.5801C17.5852 47.1479 13.945 50.7113 16.1064 53.2Z" fill="white"/>
</svg>
