<svg width="123" height="144" viewBox="0 0 123 144" fill="none" xmlns="http://www.w3.org/2000/svg">
<path d="M53.8151 21.531C48.9622 21.8545 44.0747 23.2147 39.9497 25.8271C36.83 27.8064 34.3758 30.6728 31.4745 32.9652C27.9596 35.7481 23.8485 37.6369 20.1257 40.145C15.1191 43.5832 10.9272 48.0843 7.84702 53.3293C4.76682 58.5742 2.87367 64.4348 2.30169 70.4958C1.81641 76.0267 2.45768 81.6273 1.72628 87.1304C0.96715 92.8492 -1.22705 98.822 0.911688 104.176C2.80085 108.91 7.54282 111.721 11.1894 115.272C14.3577 118.361 16.7806 122.132 19.727 125.433C26.1953 132.676 34.9339 137.4 43.4819 141.977C44.6362 142.597 45.8321 143.226 47.1355 143.348C49.3193 143.546 51.3436 142.304 53.1843 141.101C54.8654 143.567 58.2694 144.075 61.2505 143.988C73.7293 143.64 85.0712 137.013 95.5396 130.209C102.573 125.635 107.939 119.321 112.587 112.326C115.8 107.487 119.412 103.282 120.993 97.6914C122.629 91.8961 123.978 85.6451 122.05 79.9506C121.052 76.9903 118.879 74.1344 115.811 73.5778C120.664 66.0466 117.35 55.6735 111.461 48.9389C105.571 42.2043 97.5432 37.7517 90.964 31.6955C86.6034 27.6742 82.0624 22.592 76.1454 22.8007C73.0014 22.912 70.0342 24.5783 66.8902 24.46C66.9006 24.4531 59.0147 21.1832 53.8151 21.531Z" fill="#964802"/>
<path d="M32.8715 126.035C38.7282 129.909 45.3101 132.546 52.2156 133.784C59.1211 135.022 66.2055 134.835 73.0367 133.235C79.8679 131.635 86.3028 128.655 91.9488 124.478C97.5947 120.3 102.334 115.012 105.876 108.936C109.419 102.86 111.691 96.1235 112.554 89.1374C113.417 82.1513 112.853 75.062 110.896 68.3019C108.939 61.5417 105.631 55.2524 101.172 49.8176C96.7138 44.3828 91.1988 39.9164 84.9638 36.6908C84.9638 36.6908 80.4783 49.092 77.3586 47.7005C74.2389 46.3091 69.7326 52.2227 69.7326 52.2227L74.5855 45.6134C79.4384 46.6569 82.7765 35.6298 82.7765 35.6298C71.1697 30.3222 58.0163 29.5123 45.85 33.3562C33.6837 37.2001 23.365 45.4259 16.8815 56.449C10.3981 67.4722 8.2085 80.513 10.7345 93.0596C13.2605 105.606 20.3235 116.771 30.5629 124.404L37.1489 121.099L38.5355 116.925L44.0816 117.62L39.2288 117.968L38.1888 122.49L32.8715 126.035Z" fill="#CC6600"/>
<path d="M61.5313 24.4879C61.8779 22.9086 61.2886 20.7205 60.6543 19.1308C60.2512 18.1945 59.7663 17.2959 59.2054 16.4453C58.0233 14.4939 56.8656 12.0797 57.2365 9.68991C57.8673 6.34698 59.3717 3.33799 61.15 0.530762C59.8709 3.43887 58.8518 6.64614 58.7235 9.78731C58.7582 12.0936 60.3319 13.899 61.7601 15.6174C63.8399 18.1151 65.4795 21.6911 65.2923 25.0097L61.5313 24.4879Z" fill="#964802"/>
<g opacity="0.2">
<path opacity="0.2" d="M30.3998 118.347C19.0649 110.767 12.1322 96.86 13.1721 83.1961C13.9 72.5064 16.8776 61.5036 23.1864 52.7097C30.9233 42.1313 43.4333 35.1323 56.5708 34.7636C62.6875 34.4704 68.7913 35.568 74.426 37.9744L74.322 38.3222C56.297 34.6279 37.3048 40.5694 25.3598 54.4664C17.713 62.9611 13.6816 73.6369 15.2519 85.1198C15.7275 88.6432 16.4844 92.1225 17.5154 95.5243C18.5214 98.9219 19.8626 102.21 21.5191 105.341C23.9455 109.988 27.0652 114.173 30.6148 118.083L30.3894 118.347H30.3998Z" fill="black"/>
</g>
<g opacity="0.2">
<path opacity="0.2" d="M86.8113 43.9958C97.1583 49.5825 104.857 60.0739 107.159 71.6437C108.292 77.4252 108.001 83.4258 107.096 89.2072C105.71 97.8167 102.614 106.398 97.2831 113.404C88.1319 125.35 73.1226 132.105 58.1133 130.578C52.2591 130.053 46.5853 128.274 41.4749 125.36L41.617 125.044C46.9817 126.848 52.5976 127.787 58.2555 127.827C66.5879 127.836 74.7946 125.788 82.1525 121.864C88.3018 118.622 93.5915 113.898 97.8481 108.399C103.959 100.641 107.256 90.463 105.98 80.5698C105.923 79.8697 105.829 79.1731 105.699 78.4827C105.595 77.9226 105.481 76.959 105.335 76.3955C103.918 69.5809 101.474 62.9264 97.7095 57.051C94.6373 52.2888 90.902 47.9921 86.6172 44.2915L86.8147 44.0063L86.8113 43.9958Z" fill="black"/>
</g>
<g opacity="0.16">
<path opacity="0.16" d="M89.151 53.6663C92.7994 56.5237 95.8375 60.0886 98.0843 64.1489C100.331 68.2091 101.741 72.6815 102.23 77.2998C102.673 81.8846 102.053 86.5529 101.075 91.0229C99.5258 97.681 96.9157 104.266 92.6451 109.703C86.1041 117.986 76.2111 123.374 65.67 124.035C59.947 124.383 54.075 123.506 48.8408 121.137L48.9275 120.873C64.1794 124.351 80.4436 119.732 90.957 108.249C101.356 97.2009 102.58 85.3945 98.4547 71.2123C96.5448 64.8082 93.2552 59.0755 88.9604 53.868L89.151 53.6663Z" fill="black"/>
</g>
<g opacity="0.16">
<path opacity="0.16" d="M32.1677 110.472C25.7745 105.018 21.6702 97.3423 20.6768 88.9811C19.9003 80.5977 22.3059 69.4418 26.112 61.9524C29.5271 55.4045 34.782 50.0065 41.2253 46.4274C48.5878 42.4027 57.3507 40.9973 65.3545 42.7088L65.3268 42.9836C64.3146 43.0091 63.3071 43.0555 62.3042 43.1227C58.3452 43.3928 54.4364 44.1654 50.6711 45.4221C44.1633 47.6051 38.2363 51.2465 33.3393 56.0701C29.8973 59.5869 26.8642 63.6186 24.7879 68.1095C21.6681 74.7919 21.5018 81.5195 22.9542 88.6332C23.669 92.5093 24.813 96.2931 26.365 99.9143C27.918 103.563 30.0186 106.958 32.3688 110.27L32.1677 110.461V110.472Z" fill="black"/>
</g>
<g opacity="0.2">
<path opacity="0.2" d="M94.2849 83.0083C94.1879 106.277 70.7137 122.268 49.2813 112.823C37.6725 107.804 29.5889 95.6808 29.3324 83.0083C29.1244 69.1148 36.4974 58.3694 49.3194 53.2837C55.1463 50.9148 61.6804 49.8051 67.9614 50.8487C83.1614 53.4159 94.5068 67.6503 94.2849 83.0153V83.0083ZM91.9798 83.0083C92.063 68.6626 81.4074 56.0075 67.5212 53.0924C63.1328 52.0488 58.4844 51.847 54.0579 52.8524C48.5915 54.0386 43.6935 57.2041 39.9776 61.3367C34.5215 67.2085 30.9061 74.9275 30.7571 83.0257C30.5621 89.1938 32.2861 95.2697 35.6896 100.41C39.0931 105.549 44.0072 109.498 49.7492 111.707C69.8541 119.447 92.0145 104.847 91.9798 83.0257V83.0083Z" fill="black"/>
</g>
<g opacity="0.2">
<path opacity="0.2" d="M89.6051 83.0083C89.7195 98.1889 76.8455 111.401 61.5866 110.858C46.6813 110.583 34.4278 97.8236 34.0118 83.0083C33.8004 71.028 40.0363 61.9593 51.1113 57.6145C56.0821 55.5935 61.6698 54.5673 67.0565 55.4369C79.9999 57.4893 89.8894 69.974 89.6121 82.9978L89.6051 83.0083ZM87.3 83.0083C87.2168 66.6589 72.2491 55.0021 56.4495 57.1484C51.3158 57.9032 46.6674 60.7731 43.2774 64.6413C38.6948 69.6435 35.5821 76.145 35.4261 83.0083C35.2259 88.2494 36.6734 93.4208 39.5636 97.7908C42.4538 102.161 46.6404 105.508 51.5307 107.358C68.5159 113.843 87.352 101.469 87.2896 83.0083H87.3Z" fill="black"/>
</g>
<g opacity="0.2">
<path opacity="0.2" d="M83.5391 83.0083C83.6431 94.8773 73.5179 105.271 61.5798 104.819C49.9363 104.579 40.3588 94.5746 39.9983 83.0083C39.818 73.5709 44.6674 66.558 53.3853 63.1525C57.278 61.5836 61.6456 60.7453 65.8642 61.4132C76.0171 63.0063 83.7679 72.8021 83.5426 83.0118L83.5391 83.0083ZM81.5667 83.0083C81.5078 71.8246 72.4745 63.3716 61.5798 62.7072C56.1029 62.2515 50.9103 64.5474 47.3469 68.7217C43.8008 72.6316 41.3571 77.6652 41.2219 83.0083C40.7262 94.4877 50.2587 103.664 61.5798 103.289C72.5577 102.982 81.6291 94.1468 81.5667 83.0083Z" fill="black"/>
</g>
<g opacity="0.2">
<path opacity="0.2" d="M77.9931 83.0083C78.0347 91.8996 70.5404 99.6325 61.5799 99.2533C52.914 98.9576 45.9813 91.5621 45.5445 83.0083C45.4128 78.7679 46.8271 74.3118 50.0785 71.4628C51.7152 70.1322 53.5491 69.0665 55.5138 68.3043C57.451 67.5023 59.4946 66.989 61.5799 66.7806C70.5196 65.9318 78.2184 74.2561 77.9931 83.0083ZM76.0207 83.0083C76.0415 77.2651 72.3082 71.9046 67.0775 69.6853C63.6112 68.2451 59.4515 67.539 55.8465 69.1078C54.0648 69.8696 52.5327 71.195 51.2675 72.656C48.4147 75.8911 46.5116 80.0932 46.7785 84.4832C47.2084 94.0876 56.9488 99.9769 65.7915 96.9435C68.7531 96.0235 71.3437 94.1766 73.1843 91.673C75.0248 89.1694 76.0188 86.1404 76.0207 83.0291V83.0083Z" fill="black"/>
</g>
<g opacity="0.2">
<path opacity="0.2" d="M73.6774 83.0082C73.7155 89.5306 68.1728 95.2738 61.5867 94.9503C55.2884 94.745 50.1478 89.2141 49.8011 83.0082C49.6209 79.5296 51.0386 75.7588 54.0509 73.8039C55.0265 73.1848 56.0569 72.6573 57.129 72.2281C59.961 71.0767 63.2922 70.4888 66.2282 71.7445C70.7344 73.4664 73.7502 78.2182 73.667 83.0082H73.6774ZM72.0309 83.0082C72.0309 78.8548 69.3375 75.0075 65.5626 73.3795C62.3944 72.0159 58.415 71.6158 55.6003 74.0126C51.8602 77.3103 49.659 82.3125 51.4407 87.2313C52.9174 91.3151 57.3751 93.9589 61.5763 93.684C67.327 93.3884 72.0517 88.901 72.0205 83.0187L72.0309 83.0082Z" fill="black"/>
</g>
<g opacity="0.2">
<path opacity="0.2" d="M68.8244 83.0082C68.866 86.8347 65.4828 90.4176 61.5866 90.0802C56.9486 89.7602 53.5412 84.6606 55.0005 80.2601C55.628 78.2808 57.2017 77.3729 59.0111 76.7259C60.2486 76.2493 61.6351 75.7727 63.0148 75.898C66.4187 76.298 68.9388 79.6618 68.8417 83.0082H68.8244ZM67.1778 83.0082C67.1778 80.5906 65.4447 78.4513 63.2019 77.6755C61.9541 77.2268 60.5571 76.8024 59.2746 77.3972C58.566 77.7467 57.9665 78.2845 57.5414 78.9522C57.0897 79.5429 56.6874 80.17 56.3386 80.8271C54.7336 83.8083 55.9919 87.5026 59.2954 88.5496C60.7653 88.9939 62.3466 88.8812 63.7392 88.2331C64.7587 87.7978 65.6279 87.0708 66.2382 86.1428C66.8485 85.2148 67.1729 84.127 67.1709 83.0152L67.1778 83.0082Z" fill="black"/>
</g>
<path d="M57.4374 15.7148C57.4374 15.7148 54.7268 18.1116 52.7232 16.7584C50.7196 15.4052 48.5982 14.6712 47.489 15.44C46.3798 16.2088 47.8356 13.5616 51.1772 11.2657C54.5188 8.9698 57.5414 13.4676 57.5414 13.4676C57.5414 13.4676 53.6695 11.7596 52.439 13.1441C52.439 13.1441 55.6696 13.1093 57.4374 15.7148Z" fill="#964802"/>
<path d="M58.2764 2.87531C58.2764 2.87531 56.7408 4.23196 55.6038 3.46667C54.4668 2.70138 53.271 2.28742 52.6401 2.71877C52.0092 3.15012 52.8411 1.6578 54.7199 0.367239C56.5987 -0.923321 58.3214 1.60214 58.3214 1.60214C58.3214 1.60214 56.155 0.635091 55.4617 1.41778C55.4617 1.41778 57.2746 1.38995 58.2764 2.87531Z" fill="#964802"/>
<path d="M61.0078 9.44639C61.0078 9.44639 63.0357 10.1769 63.8502 8.99069C64.6648 7.80449 65.6805 6.93136 66.4639 7.10877C67.2473 7.28618 65.8573 6.14868 63.514 5.61645C61.1708 5.08423 60.4636 8.22192 60.4636 8.22192C60.4636 8.22192 62.2349 6.42697 63.2194 6.92441C63.2194 6.92441 61.4203 7.61317 61.0078 9.44639Z" fill="#964802"/>
<g filter="url(#filter0_d_844_31)">
<path d="M24.8711 70.8993C24.4085 71.0293 23.9206 71.0389 23.4533 70.9271C23.0862 70.8292 22.7357 70.6768 22.4134 70.4749C22.1618 70.3185 21.938 70.1209 21.7514 69.8905C21.6322 69.7482 21.5395 69.5856 21.4775 69.4104C21.429 69.2121 21.5676 69.0278 21.8865 68.8573C22.6593 68.5864 23.3898 68.2069 24.0565 67.7303C24.6943 67.2665 25.3309 66.7887 25.9664 66.2971C26.5788 65.8333 27.2109 65.3961 27.8625 64.9857C28.5304 64.5584 29.2651 64.2468 30.0359 64.0638C30.7654 63.9128 31.518 63.9128 32.2475 64.0638C33.1398 64.2255 33.9908 64.565 34.7502 65.0622C35.6239 65.6352 36.3892 66.3596 37.0102 67.2015C37.7523 68.2314 38.2751 69.4037 38.5458 70.6453C38.9761 72.5619 39.0185 74.5456 38.6706 76.4789C38.3027 78.6816 37.627 80.8211 36.6636 82.8343C35.6227 85.02 34.3012 87.0596 32.7328 88.901C31.1128 90.8249 29.2057 92.4853 27.0791 93.8232C26.6968 94.0654 26.293 94.2715 25.8728 94.4389C25.327 94.5474 24.7606 94.4573 24.2749 94.185C24.0322 94.0598 23.7376 93.8998 23.3909 93.7084C23.0308 93.5089 22.6835 93.287 22.351 93.044C21.9983 92.787 21.6812 92.4841 21.4082 92.1431C21.1374 91.8145 20.9432 91.4295 20.8397 91.016C20.6664 90.2878 20.6664 89.1503 20.8397 87.6035C21.0234 86.052 21.3077 84.3162 21.7028 82.3856C22.098 80.455 22.5729 78.4896 23.1344 76.472C23.696 74.4544 24.2853 72.576 24.8711 70.8993ZM27.0375 69.8974C27.0936 70.008 27.1366 70.1247 27.1658 70.2453L27.2455 70.614C27.3762 71.3136 27.382 72.0309 27.2629 72.7325C27.145 73.6392 26.9543 74.6422 26.6909 75.7415C26.4275 76.8407 26.1363 78.0188 25.8174 79.2757C25.4592 80.5303 25.1241 81.7884 24.8121 83.05C24.5002 84.3116 24.2194 85.5476 23.9698 86.7582C23.7392 87.8511 23.5852 88.9588 23.5088 90.0733C23.5088 90.3864 23.4811 90.6507 23.4741 90.8664C23.4653 91.0638 23.4828 91.2615 23.5261 91.4543C23.6532 91.9761 23.9583 92.1778 24.4412 92.0596C24.6455 92.001 24.838 91.9068 25.0097 91.7813C27.1361 90.3125 29.0183 88.5163 30.5871 86.459C32.0168 84.5908 33.2081 82.5504 34.1332 80.3854C34.9453 78.4985 35.4957 76.5088 35.7693 74.4718C36.0136 72.8533 35.9679 71.2041 35.6341 69.6017C35.4545 68.6728 35.0101 67.816 34.355 67.1354C34.0572 66.863 33.693 66.6741 33.2993 66.588C32.9055 66.5019 32.4961 66.5215 32.1123 66.6449C31.2724 66.8837 30.4941 67.3027 29.8314 67.8729C28.9718 68.5408 28.0405 69.2156 27.0375 69.8974Z" fill="white"/>
<path d="M54.1167 76.8756C53.8839 77.2636 53.5254 77.5595 53.1011 77.7139C53.0692 80.1282 52.5294 82.5085 51.5169 84.6989C51.0469 85.7178 50.4212 86.6567 49.6625 87.4818C48.9967 88.2262 48.1256 88.7553 47.1597 89.0019C46.6059 89.1216 46.0349 89.1381 45.4751 89.0506C44.8082 88.9542 44.1652 88.7335 43.579 88.4001C42.9198 88.0269 42.3384 87.5296 41.8666 86.9356C41.3122 86.2192 40.9249 85.3871 40.7331 84.5006C40.436 83.1754 40.3796 81.8073 40.5668 80.462C40.7395 78.9877 41.1212 77.5458 41.7003 76.1798C42.2448 74.8845 42.9913 73.6845 43.9118 72.6247C44.6915 71.6812 45.7441 71.0041 46.924 70.6871C47.3791 70.5642 47.8594 70.5714 48.3106 70.708C48.8303 70.8993 49.3125 71.1807 49.7352 71.5394C50.019 71.7841 50.3281 71.9976 50.6573 72.176C50.9417 72.3507 51.2097 72.551 51.458 72.7743C51.7276 73.0311 51.9608 73.3237 52.1513 73.6439C52.4086 74.0886 52.5946 74.571 52.7024 75.0736L53.0213 76.7677C53.1649 76.733 53.3044 76.6828 53.4373 76.6181C53.5699 76.5535 53.7095 76.5045 53.8533 76.472C54.0266 76.4303 54.1236 76.472 54.1514 76.5799C54.1662 76.6289 54.1707 76.6805 54.1648 76.7313C54.1588 76.7822 54.1424 76.8313 54.1167 76.8756ZM50.1477 77.8461C49.809 77.7764 49.4797 77.6667 49.1668 77.5191C48.7651 77.3369 48.3887 77.103 48.0471 76.8234C47.6568 76.5064 47.3075 76.1419 47.0072 75.7381C46.6842 75.2913 46.4543 74.7837 46.3313 74.2457C45.7215 75.0921 45.2153 76.0089 44.8234 76.9764C44.4064 77.9784 44.0747 79.0141 43.8321 80.0724C43.5977 81.0876 43.463 82.1233 43.43 83.1649C43.3929 84.0741 43.4769 84.9842 43.6795 85.8712C44.0192 87.2626 44.6582 87.8424 45.5964 87.6105C46.1395 87.4411 46.6262 87.126 47.0038 86.6991C47.5563 86.0996 48.0166 85.4208 48.3695 84.685C48.8389 83.7248 49.2161 82.7219 49.4961 81.6899C49.8386 80.4321 50.0569 79.1434 50.1477 77.8426V77.8461ZM50.1685 76.6147C50.1952 75.7355 50.1185 74.8563 49.9398 73.9953C49.8693 73.5838 49.6978 73.1964 49.4406 72.8682C49.2396 72.663 49.0662 72.576 48.9241 72.6108C48.782 72.6456 48.626 72.8334 48.5394 73.1569C48.453 73.5736 48.472 74.0053 48.5948 74.4127C48.7087 74.8913 48.9174 75.342 49.2084 75.7381C49.4585 76.0983 49.7868 76.3968 50.1685 76.6112V76.6147Z" fill="white"/>
<path d="M66.7828 65.6154C67.057 65.5352 67.3444 65.5105 67.6283 65.5428C67.9121 65.575 68.1867 65.6635 68.4362 65.8032C68.674 65.9459 68.8795 66.1369 69.0394 66.364C69.1994 66.591 69.3104 66.849 69.3652 67.1216C69.4404 67.8093 69.4264 68.5038 69.3236 69.1879C69.2196 70.2523 69.0775 71.442 68.9007 72.7639C68.7239 74.0857 68.5541 75.4285 68.3634 76.7956C68.1728 78.1627 67.996 79.3349 67.892 80.2742C68.5231 79.461 69.08 78.5925 69.5558 77.6791C70.1913 76.5196 70.8488 75.1919 71.5282 73.6961C72.2076 72.2003 72.8685 70.6396 73.511 69.014C74.1557 67.3906 74.7207 65.838 75.206 64.3561C75.2736 64.0514 75.4249 63.7718 75.6428 63.5491C75.8014 63.4328 75.9818 63.35 76.1731 63.3056C76.4435 63.2421 76.7257 63.2517 76.9912 63.3334C77.27 63.4072 77.5356 63.5246 77.778 63.6813C78.0168 63.8411 78.2316 64.0344 78.4158 64.2552C78.5789 64.439 78.6975 64.658 78.7625 64.8953C78.8721 65.4698 78.8721 66.0601 78.7625 66.6346C78.6516 67.3581 78.4875 68.1698 78.2703 69.0696C78.053 69.9694 77.8219 70.9063 77.577 71.8803C77.3066 72.8845 77.0663 73.8527 76.856 74.7849C76.6457 75.7172 76.492 76.5729 76.395 77.3521C76.2939 77.9833 76.3045 78.6274 76.4262 79.2549C76.4858 79.6117 76.6444 79.9444 76.8837 80.215C77.0104 80.3082 77.1582 80.3681 77.3137 80.3893C77.4693 80.4106 77.6277 80.3925 77.7746 80.3368C78.2894 80.1879 78.7512 79.8946 79.1056 79.4915C79.575 78.9861 79.978 78.4227 80.305 77.8148C80.6963 77.0926 81.0346 76.3427 81.3172 75.5711C81.6291 74.7397 81.9065 73.884 82.1456 73.0109C82.1601 72.9178 82.2003 72.8307 82.2615 72.7594C82.3228 72.6881 82.4027 72.6354 82.4923 72.6073C82.5604 72.598 82.6298 72.6054 82.6945 72.6291C82.7591 72.6527 82.817 72.6918 82.8632 72.743C83.048 72.9644 83.168 73.233 83.2098 73.5187C83.3889 74.3182 83.3481 75.1514 83.092 75.9294C82.8253 76.8142 82.4368 77.6572 81.9377 78.434C81.4347 79.2205 80.8138 79.9245 80.097 80.5211C79.4571 81.0811 78.6965 81.4848 77.8751 81.7004C76.6237 82.0065 75.6289 81.9195 74.8975 81.4499C74.1303 80.9227 73.6019 80.1124 73.4278 79.1958C73.3057 78.6323 73.2869 78.0511 73.3723 77.4809C73.4555 76.8234 73.5837 76.0894 73.764 75.2754C73.9442 74.4614 74.1696 73.564 74.4573 72.5899C74.745 71.6159 74.9564 70.6245 75.1991 69.5044C74.8906 70.2002 74.5058 71.0628 74.076 72.0473C73.6461 73.0317 73.1678 74.0544 72.6721 75.1119C72.1764 76.1694 71.6668 77.22 71.1504 78.2427C70.6339 79.2654 70.1451 80.215 69.6876 81.0534C69.305 81.7715 68.873 82.4619 68.3946 83.1197C67.996 83.6554 67.6805 83.9545 67.4552 84.0102C67.2306 84.0711 66.9959 84.0849 66.7657 84.0508C66.5355 84.0167 66.3147 83.9353 66.1172 83.8119C65.9051 83.6726 65.7233 83.4917 65.5828 83.2801C65.4422 83.0685 65.3457 82.8305 65.2992 82.5805C65.1645 81.8202 65.1446 81.0439 65.2402 80.2776C65.3234 79.2619 65.4378 78.1731 65.5869 77.0217C65.7359 75.8703 65.8711 74.7293 66.0063 73.6057C66.1317 72.6906 66.1896 71.7674 66.1796 70.8437C65.5649 72.4439 64.9583 74.1194 64.3598 75.8703C63.7613 77.6212 63.1177 79.2526 62.429 80.7646C61.8215 82.1421 61.0709 83.4515 60.1898 84.6711C59.3856 85.7634 58.4843 86.4301 57.486 86.6713C57.1739 86.752 56.8446 86.7345 56.5427 86.6213C56.2408 86.508 55.9808 86.3045 55.7979 86.0382C55.2898 85.3886 54.9344 84.6324 54.758 83.8258C54.6026 83.1819 54.5178 82.5228 54.5049 81.8604C54.4886 81.216 54.5526 80.5721 54.6956 79.9437C54.8199 79.3897 55.0455 78.8636 55.3611 78.3922C55.6446 77.9652 56.0798 77.6629 56.5778 77.5469C56.7 77.5035 56.8313 77.4918 56.9592 77.5131C57.0871 77.5344 57.2075 77.5879 57.3092 77.6687C57.5015 77.8571 57.632 78.0998 57.6836 78.3644C57.8375 79.2442 57.802 80.1468 57.5796 81.0116C57.3493 82.1212 56.9617 83.1918 56.4288 84.1911C56.4964 84.4231 56.6149 84.637 56.7754 84.8172C56.8386 84.9143 56.9301 84.9894 57.0374 85.0324C57.1448 85.0753 57.2627 85.084 57.3751 85.0572C57.9158 84.9251 58.5525 84.2548 59.285 83.0466C60.1295 81.6117 60.8776 80.1219 61.5243 78.587C62.2869 76.8246 63.0507 74.909 63.8156 72.8404C64.5805 70.7718 65.2668 68.8006 65.8746 66.9268C66.0167 66.5268 66.1311 66.2311 66.2212 66.0015C66.279 65.8982 66.3598 65.8097 66.4571 65.7427C66.5545 65.6758 66.6659 65.6322 66.7828 65.6154Z" fill="white"/>
<path d="M93.6609 62.4915C93.7787 62.1089 93.8931 61.7089 94.0075 61.2949C94.1219 60.881 94.2294 60.5018 94.3542 60.1644C94.4483 59.8754 94.5642 59.5939 94.7008 59.3225C94.733 59.2345 94.7838 59.1545 94.8496 59.0878C94.9154 59.0212 94.9947 58.9696 95.0821 58.9364C95.1941 58.9092 95.3115 58.9143 95.4207 58.9513C95.5299 58.9882 95.6264 59.0554 95.6991 59.1451C95.8848 59.3463 96.0454 59.5694 96.1775 59.8095C96.311 60.0488 96.4268 60.2977 96.5241 60.554C96.6142 60.8009 96.6628 60.9366 96.6697 60.9644C96.8326 61.6602 96.7633 62.5889 96.4548 63.8134C96.1463 65.0379 95.8031 66.3319 95.4149 67.706C95.0266 69.08 94.6488 70.4436 94.375 71.7794C94.1002 72.8602 94.0659 73.9884 94.2744 75.0841C94.472 75.8981 94.8949 76.225 95.55 76.065C96.0433 75.9186 96.4838 75.6323 96.8187 75.2406C97.2841 74.7307 97.6867 74.1666 98.0181 73.5604C98.4205 72.8399 98.7682 72.0898 99.058 71.3167C99.3708 70.4937 99.6347 69.6527 99.8483 68.7982C99.9142 68.5721 100.018 68.4504 100.16 68.4086C100.417 68.346 100.618 68.6104 100.76 69.2052C100.925 69.9649 100.907 70.7532 100.708 71.5046C100.501 72.3797 100.163 73.2183 99.7062 73.9918C99.2523 74.7747 98.6858 75.4862 98.025 76.1033C97.4315 76.6806 96.6977 77.092 95.8967 77.2964C94.6442 77.6026 93.6389 77.4959 92.881 76.9764C92.1109 76.4422 91.5748 75.6315 91.3835 74.7118C90.9088 75.7632 90.2854 76.7404 89.5325 77.613C88.8443 78.456 87.9053 79.0557 86.853 79.3245C86.3655 79.475 85.8491 79.5059 85.3472 79.4145C84.8453 79.3231 84.3727 79.1121 83.969 78.7992C83.1338 78.0915 82.563 77.1201 82.3502 76.0441C82.1167 75.0026 82.0558 73.9296 82.1699 72.8682C82.2928 71.5946 82.5987 70.3456 83.0781 69.16C84.2128 66.2635 85.4422 64.094 86.7663 62.6516C88.0905 61.2091 89.2921 60.3568 90.3713 60.0948C90.7282 59.9801 91.1067 59.95 91.4772 60.0067C91.8477 60.0634 92.2 60.2055 92.5066 60.4218C93.0853 60.8575 93.4868 61.4891 93.6366 62.1993L93.6609 62.4915ZM91.5325 69.9183C91.975 68.5045 92.3042 67.0574 92.517 65.591C92.6628 64.7275 92.6628 63.8455 92.517 62.982C92.361 62.335 92.0456 62.0393 91.5776 62.095C91.0958 62.2133 90.458 62.7907 89.6607 63.7891C88.7808 64.9417 88.0212 66.182 87.3937 67.4903C86.672 68.9629 86.1074 70.5078 85.7091 72.0994C85.3083 73.536 85.2643 75.0492 85.5808 76.5068C85.6552 76.8975 85.8378 77.2592 86.1077 77.5504C86.2126 77.6573 86.344 77.7343 86.4884 77.7735C86.6328 77.8126 86.7849 77.8124 86.9292 77.773C87.8143 77.5573 88.6462 76.7294 89.425 75.2893C90.3135 73.5782 91.0199 71.7779 91.5325 69.9183Z" fill="white"/>
<path d="M44.0228 99.3125C44.1002 99.4147 44.1525 99.5339 44.1753 99.6604C44.2642 100.05 44.2511 100.456 44.1371 100.84C44.0198 101.263 43.8361 101.664 43.5929 102.029C43.3481 102.395 43.0515 102.723 42.7125 103.003C42.4108 103.261 42.0555 103.448 41.6726 103.549C41.4123 103.636 41.1368 103.667 40.864 103.64C40.5911 103.613 40.3269 103.529 40.0885 103.393C39.8855 103.259 39.7109 103.086 39.5747 102.884C39.4385 102.683 39.3433 102.456 39.2947 102.217C39.1921 101.7 39.2063 101.166 39.3363 100.655C39.4678 100.036 39.6309 99.4243 39.825 98.822C40.0145 98.2167 40.1971 97.6752 40.3727 97.1975C40.5001 96.9097 40.5639 96.5976 40.5599 96.2826C40.5599 96.2409 40.5183 96.227 40.4628 96.2409C40.2278 96.359 40.0173 96.5207 39.8423 96.7175C39.4043 97.1921 39.0228 97.7163 38.7054 98.2794C38.0926 99.2746 37.6146 100.347 37.2842 101.469C36.9757 102.544 36.7192 103.616 36.5146 104.677C36.473 104.862 36.4037 104.966 36.3067 104.99C36.1992 105.014 36.0571 104.941 35.8768 104.767C35.6716 104.546 35.5333 104.271 35.4782 103.974C35.4278 103.745 35.3965 103.512 35.3846 103.278C35.3714 102.969 35.3877 102.659 35.4331 102.353C35.5054 101.863 35.6155 101.379 35.7624 100.906C35.9265 100.358 36.0894 99.8262 36.2512 99.309C36.4176 98.8046 36.5632 98.3524 36.681 97.9558C36.7815 97.7005 36.8264 97.4265 36.8127 97.1523C36.8127 97.0966 36.7573 97.0792 36.6914 97.0931C36.3817 97.2478 36.1131 97.4744 35.908 97.7541C35.4328 98.3248 35.0203 98.9453 34.6775 99.6047C34.2194 100.47 33.8657 101.386 33.6237 102.335C33.345 103.366 33.124 104.411 32.9616 105.466C32.9478 105.584 32.8992 105.654 32.816 105.675C32.6531 105.713 32.4694 105.633 32.303 105.428C32.1322 105.228 32.0132 104.989 31.9564 104.732C31.853 104.183 31.853 103.619 31.9564 103.069C32.0604 102.374 32.2418 101.485 32.5006 100.405C32.1011 100.868 31.5683 101.197 30.9754 101.344C30.894 101.366 30.8102 101.379 30.7258 101.382C30.7236 101.959 30.6632 102.533 30.5456 103.097C30.4281 103.675 30.2443 104.238 29.9979 104.774C29.7736 105.274 29.4691 105.733 29.0967 106.134C28.7672 106.501 28.3364 106.761 27.8592 106.882C27.597 106.939 27.3266 106.946 27.0619 106.903C26.7489 106.854 26.4478 106.747 26.1745 106.586C25.865 106.406 25.5912 106.17 25.3669 105.891C25.0902 105.544 24.8969 105.138 24.8018 104.704C24.6594 104.073 24.6336 103.421 24.7256 102.781C24.8102 102.078 24.9922 101.391 25.2663 100.739C25.5195 100.115 25.8706 99.536 26.3062 99.0238C26.6905 98.5662 27.2082 98.2413 27.7864 98.095C27.995 98.0365 28.2156 98.0365 28.4242 98.095C28.6765 98.1857 28.9111 98.3199 29.1175 98.4916C29.2517 98.6105 29.3995 98.7133 29.5577 98.7977C29.6962 98.8829 29.8282 98.9783 29.9528 99.0829C30.0875 99.1996 30.2043 99.3356 30.2995 99.4864C30.4246 99.7027 30.5147 99.9375 30.5664 100.182C30.6288 100.443 30.6634 100.607 30.6738 100.676C30.68 100.733 30.68 100.79 30.6738 100.847C31.0162 100.758 31.3309 100.585 31.589 100.342C31.8923 100.061 32.1569 99.7404 32.3758 99.389C32.6271 98.9916 32.8473 98.5752 33.0344 98.1437C33.2355 97.688 33.4157 97.2253 33.5752 96.7523C33.6168 96.6235 33.6792 96.5505 33.7589 96.5331C33.8975 96.4983 34.0362 96.5957 34.1783 96.8218C34.3065 97.0211 34.4024 97.2395 34.4626 97.4688C34.5585 97.9007 34.5714 98.347 34.5007 98.7838C34.6798 98.45 34.8765 98.126 35.09 97.8132C35.3034 97.4941 35.5349 97.1875 35.7832 96.8949C35.9969 96.6374 36.2285 96.3956 36.4765 96.1713C36.6523 95.9995 36.8661 95.872 37.1005 95.7991C37.2387 95.7684 37.3829 95.7795 37.5149 95.8308C37.6469 95.8822 37.7608 95.9716 37.8423 96.0878C38.0685 96.3599 38.2276 96.6817 38.3067 97.0271C38.3541 97.2196 38.3808 97.4167 38.3865 97.6149C38.5737 97.3227 38.7782 97.0305 39.0035 96.7349C39.2196 96.4577 39.451 96.1929 39.6968 95.9417C39.9049 95.7242 40.1272 95.5209 40.3623 95.333C40.5277 95.1915 40.7199 95.085 40.9273 95.0199C41.036 94.9911 41.1507 94.9948 41.2572 95.0307C41.3638 95.0665 41.4576 95.1329 41.527 95.2217C41.7089 95.4408 41.835 95.7011 41.8944 95.98C41.9746 96.3339 41.9863 96.7 41.9291 97.0584C41.8651 97.4682 41.7759 97.8736 41.6622 98.2724C41.5374 98.6933 41.4057 99.1177 41.2635 99.5421C41.1155 99.971 40.9906 100.408 40.8892 100.85C40.7927 101.251 40.7832 101.669 40.8614 102.075C40.9081 102.32 41.0292 102.545 41.2081 102.718C41.2848 102.786 41.3775 102.834 41.4775 102.856C41.5776 102.879 41.6816 102.876 41.78 102.847C42.0077 102.784 42.2102 102.652 42.3589 102.468C42.5622 102.231 42.7356 101.971 42.8754 101.692C43.0518 101.351 43.2035 100.997 43.3295 100.634C43.4671 100.228 43.5828 99.8147 43.6761 99.396C43.6805 99.3585 43.6956 99.3231 43.7196 99.2941C43.7435 99.2651 43.7754 99.2437 43.8113 99.2325C43.8501 99.2308 43.8888 99.237 43.9252 99.2508C43.9615 99.2645 43.9947 99.2855 44.0228 99.3125ZM29.2908 101.4C28.8802 101.288 28.5007 101.084 28.1815 100.801C27.8606 100.53 27.6207 100.175 27.4883 99.7751C27.2157 100.174 26.9835 100.6 26.795 101.045C26.5872 101.517 26.4236 102.007 26.3062 102.509C26.1902 102.993 26.1182 103.487 26.0913 103.984C26.0592 104.42 26.092 104.859 26.1884 105.285C26.3617 105.981 26.6702 106.298 27.1208 106.186C27.386 106.097 27.6204 105.934 27.7968 105.717C28.0747 105.409 28.308 105.063 28.49 104.69C28.7233 104.22 28.9091 103.727 29.0447 103.219C29.2054 102.622 29.2916 102.007 29.3012 101.389L29.2908 101.4ZM29.3289 100.847C29.338 100.476 29.2996 100.105 29.2145 99.7438C29.1734 99.5326 29.0909 99.3316 28.9719 99.1525C28.8783 99.0307 28.7916 98.9786 28.7084 98.9994C28.6252 99.0203 28.5628 99.1003 28.5178 99.2429C28.4683 99.4263 28.4683 99.6196 28.5178 99.803C28.5728 100.012 28.6644 100.21 28.7882 100.387C28.93 100.582 29.1199 100.737 29.3393 100.836L29.3289 100.847Z" fill="white"/>
<path d="M50.4596 94.6546C50.6191 94.3694 50.8063 94.0737 51.0142 93.7711C51.2093 93.4825 51.4187 93.2038 51.6416 92.9362C51.8345 92.7008 52.0467 92.4821 52.276 92.2823C52.4391 92.1224 52.6374 92.0033 52.8549 91.9344C53.0032 91.9057 53.156 91.9111 53.3019 91.9503C53.4478 91.9895 53.583 92.0613 53.6972 92.1605C53.991 92.3813 54.1954 92.7013 54.2726 93.0615C54.3471 93.498 54.3186 93.9459 54.1894 94.3694C54.0542 94.9155 53.9017 95.486 53.7284 96.0739C53.5551 96.6618 53.4026 97.2462 53.2708 97.8132C53.1464 98.2666 53.1262 98.7423 53.2119 99.2046C53.2495 99.4136 53.3528 99.605 53.5065 99.7508C53.5729 99.8089 53.6528 99.8492 53.7389 99.868C53.8249 99.8869 53.9143 99.8837 53.9988 99.8586C54.2301 99.797 54.4377 99.6674 54.595 99.4864C54.8071 99.2454 54.9888 98.979 55.1357 98.6933C55.3178 98.3482 55.4742 97.9901 55.6037 97.6219C55.7447 97.2253 55.8729 96.8183 55.9885 96.4009C55.9885 96.2792 56.0439 96.2131 56.1132 96.1957C56.1826 96.1783 56.2346 96.2131 56.3178 96.2861C56.4111 96.3819 56.4749 96.5027 56.5015 96.634C56.5829 97.0087 56.5662 97.3982 56.4529 97.7645C56.3302 98.1877 56.1468 98.5908 55.9087 98.9611C55.6667 99.3424 55.37 99.6859 55.0283 99.9804C54.7249 100.253 54.3614 100.45 53.9676 100.554C53.7242 100.637 53.4667 100.669 53.2107 100.649C52.9546 100.629 52.7051 100.558 52.477 100.44C52.2868 100.311 52.1238 100.146 51.9977 99.9534C51.8716 99.7611 51.7847 99.5457 51.7422 99.3194C51.6154 98.7382 51.6059 98.1373 51.7144 97.5523C51.8141 96.9112 51.953 96.2769 52.1304 95.653C52.3014 95.0477 52.4666 94.5085 52.6261 94.0355C52.7479 93.7488 52.8059 93.439 52.7959 93.1275C52.7786 93.0615 52.7439 93.0336 52.6885 93.0475C52.3581 93.2204 52.0648 93.4568 51.8254 93.7433C51.2992 94.308 50.8525 94.9424 50.4977 95.6287C50.27 96.0463 50.0753 96.4813 49.9154 96.9296C49.7455 97.3958 49.5965 97.8828 49.4578 98.3941C49.3192 98.9055 49.2013 99.4377 49.0904 99.956C48.9795 100.474 48.8755 101.02 48.775 101.549C48.7368 101.688 48.6814 101.768 48.6155 101.782C48.463 101.821 48.3001 101.723 48.1233 101.494C47.9595 101.281 47.8415 101.037 47.7767 100.777C47.7147 100.369 47.7147 99.9537 47.7767 99.5456C47.8514 98.8919 47.9613 98.2427 48.106 97.601C48.2689 96.867 48.4699 96.0913 48.7091 95.2634C48.9483 94.4355 49.2187 93.6319 49.5168 92.8284C49.5584 92.6997 49.6138 92.6301 49.6832 92.6127C49.7214 92.6059 49.7607 92.6088 49.7976 92.6209C49.8345 92.633 49.8678 92.6541 49.8946 92.6823C49.9757 92.7512 50.0459 92.8321 50.1026 92.9223C50.1752 93.0313 50.2356 93.148 50.2828 93.2702C50.3291 93.377 50.3662 93.4875 50.3938 93.6006C50.4642 93.9472 50.4863 94.3019 50.4596 94.6546Z" fill="white"/>
<path d="M60.6958 98.2202C61.1552 98.0847 61.5862 97.8666 61.968 97.5767C62.3215 97.3051 62.6334 96.9827 62.8935 96.6201C63.1426 96.2718 63.3486 95.8945 63.507 95.4965C63.6568 95.1132 63.7728 94.7174 63.8537 94.3137C63.8745 94.1676 63.9265 94.0842 64.0097 94.0633C64.1587 94.025 64.2731 94.1711 64.3563 94.4946C64.5066 95.0349 64.4586 95.6114 64.2211 96.1191C63.9843 96.6078 63.6587 97.0479 63.2609 97.4166C62.8634 97.7888 62.4138 98.1005 61.9264 98.3419C61.5199 98.5527 61.0923 98.7194 60.6508 98.8394C59.9297 99.0411 59.1653 99.0254 58.4531 98.7942C58.1406 98.6881 57.8567 98.5111 57.6234 98.277C57.3902 98.043 57.2139 97.7581 57.1081 97.4445C56.8551 98.4881 56.6021 99.5908 56.3421 100.753C56.0821 101.914 55.8533 103.153 55.6488 104.468C55.6488 104.586 55.5933 104.656 55.524 104.673C55.4027 104.701 55.2675 104.61 55.1219 104.395C54.9766 104.185 54.873 103.948 54.8169 103.699C54.7658 103.491 54.7322 103.279 54.7164 103.066C54.6955 102.787 54.6955 102.507 54.7164 102.228C54.7441 101.918 54.8204 101.414 54.9451 100.718C55.0699 100.022 55.2259 99.2429 55.4096 98.3802C55.5934 97.5175 55.7909 96.6409 56.0162 95.7156C56.2416 94.7903 56.4634 93.9589 56.6818 93.1902C56.9002 92.4214 57.1047 91.7987 57.3023 91.2874C57.4998 90.776 57.6662 90.5186 57.8014 90.4873C57.9366 90.456 58.0406 90.5429 58.1481 90.7482C58.2516 90.9433 58.3319 91.1499 58.3872 91.3639L58.4254 91.5274C58.6427 91.209 58.9001 90.9202 59.1914 90.6682C59.4578 90.4245 59.7789 90.2491 60.1273 90.1568C60.3543 90.0949 60.5936 90.0949 60.8206 90.1568C61.0477 90.2233 61.2589 90.3358 61.4411 90.4873C61.6365 90.6485 61.801 90.8442 61.9264 91.0647C62.0598 91.2928 62.1602 91.5388 62.2245 91.7952C62.3589 92.3728 62.401 92.9681 62.3493 93.5589C62.3022 94.1837 62.1942 94.8024 62.0269 95.406C61.8735 95.9714 61.6705 96.522 61.4203 97.0514C61.2423 97.4772 60.9978 97.8718 60.6958 98.2202ZM57.7633 95.1451C57.7137 95.5024 57.6882 95.8627 57.687 96.2235C57.6869 96.528 57.7218 96.8315 57.791 97.1279C57.8528 97.4168 57.981 97.6872 58.1654 97.9176C58.2309 98.0138 58.3239 98.0879 58.4322 98.1302C58.5404 98.1724 58.6589 98.1807 58.772 98.1541C59.0019 98.0718 59.1997 97.9183 59.337 97.7158C59.5607 97.4293 59.7503 97.1176 59.902 96.787C60.093 96.3804 60.2551 95.9608 60.3873 95.5312C60.5324 95.0754 60.6482 94.6106 60.734 94.1398C60.822 93.6809 60.873 93.2155 60.8865 92.7484C60.9078 92.3477 60.8728 91.9461 60.7825 91.5552C60.6508 91.016 60.4358 90.783 60.1585 90.8595C59.9784 90.917 59.8161 91.02 59.6871 91.1587C59.4877 91.3556 59.3089 91.5724 59.1533 91.8057C58.9528 92.0975 58.7733 92.4032 58.616 92.7205C58.437 93.0795 58.2886 93.4531 58.1723 93.8372L57.7633 95.1451Z" fill="white"/>
<path d="M68.0444 94.9642C67.9319 95.2502 67.7999 95.528 67.6492 95.7956C67.4955 96.0745 67.3168 96.3388 67.1154 96.5853C66.9262 96.8222 66.7098 97.0359 66.4706 97.2218C66.2496 97.399 65.993 97.5259 65.7185 97.594C65.5146 97.6671 65.2959 97.6886 65.0819 97.6564C64.8678 97.6242 64.6649 97.5395 64.4914 97.4097C64.1923 97.1318 63.9874 96.7668 63.9056 96.3661C63.8102 95.9265 63.7764 95.4758 63.805 95.0268C63.8361 94.432 63.9103 93.8403 64.0269 93.2562C64.1653 92.5519 64.34 91.8553 64.5503 91.1691C64.7814 90.4247 65.0437 89.664 65.3372 88.8871C65.3535 88.8335 65.3825 88.7845 65.4217 88.7446C65.461 88.7046 65.5092 88.6747 65.5625 88.6575C65.6094 88.6458 65.6583 88.6448 65.7056 88.6544C65.753 88.664 65.7976 88.6841 65.8363 88.7132C65.9279 88.778 66.0067 88.8594 66.0686 88.9532C66.1406 89.0619 66.2 89.1787 66.2453 89.3011C66.2925 89.4055 66.3307 89.5137 66.3597 89.6246C66.4749 90.3056 66.4042 91.0052 66.1552 91.6491C66.0096 92.1083 65.8675 92.5675 65.7323 93.0406C65.6033 93.4685 65.4957 93.9028 65.4099 94.3416C65.3327 94.7146 65.2795 95.0922 65.2505 95.4721C65.2204 95.765 65.2367 96.0609 65.299 96.3487C65.3926 96.7348 65.5763 96.9157 65.8432 96.8948C66.2439 96.7446 66.5708 96.444 66.7549 96.0565C67.0829 95.5041 67.3579 94.9217 67.5764 94.3172C67.8329 93.6389 68.0721 92.9049 68.3009 92.1153C68.5297 91.3256 68.7203 90.6264 68.9144 89.962C69.1085 89.2976 69.2611 88.7445 69.4205 88.2992C69.58 87.854 69.6909 87.6035 69.7983 87.6035C69.9058 87.6035 70.0791 87.6557 70.2316 87.8609C70.3898 88.0846 70.5017 88.3377 70.5609 88.6054C70.6103 88.8152 70.637 89.0298 70.6407 89.2454C70.6454 89.4954 70.6222 89.7451 70.5713 89.9898C70.4838 90.4602 70.368 90.9249 70.2247 91.3813C70.0757 91.8892 69.9301 92.3935 69.7914 92.8979C69.6528 93.4023 69.5453 93.8754 69.4656 94.3172C69.3912 94.6822 69.3912 95.0584 69.4656 95.4234C69.58 95.893 69.8122 96.0843 70.19 95.9939C70.4369 95.924 70.6576 95.7824 70.8244 95.5869C71.0496 95.3417 71.2418 95.0681 71.3963 94.7729C71.585 94.4239 71.7472 94.0611 71.8816 93.6876C72.0272 93.2841 72.1589 92.8701 72.2733 92.4457C72.2809 92.4007 72.3008 92.3586 72.3308 92.3242C72.3608 92.2898 72.3997 92.2644 72.4432 92.2509C72.4758 92.2469 72.5088 92.2508 72.5396 92.2623C72.5704 92.2738 72.5979 92.2926 72.62 92.317C72.7088 92.4245 72.7664 92.5545 72.7863 92.6927C72.872 93.0801 72.854 93.4833 72.7343 93.8615C72.6084 94.2891 72.4229 94.6966 72.1832 95.0721C71.9451 95.4552 71.6479 95.7981 71.3027 96.0878C70.9982 96.3574 70.6349 96.5515 70.242 96.6548C70.0083 96.7334 69.761 96.7632 69.5154 96.7422C69.2698 96.7213 69.0311 96.6501 68.8139 96.5331C68.4521 96.2729 68.2038 95.8831 68.1206 95.4443C68.1206 95.3747 68.0929 95.3051 68.0825 95.2356C68.0721 95.166 68.0478 95.0442 68.0444 94.9642Z" fill="white"/>
<path d="M76.8975 94.2685C77.3574 94.1345 77.7887 93.9163 78.1697 93.625C78.5242 93.3547 78.8372 93.0336 79.0987 92.6719C79.3486 92.323 79.5547 91.9444 79.7122 91.5448C79.8636 91.1632 79.9796 90.7685 80.0588 90.3656C80.0831 90.2195 80.1351 90.1325 80.2148 90.1151C80.3639 90.0768 80.4783 90.2194 80.5615 90.5464C80.7122 91.0908 80.6617 91.6715 80.4193 92.1814C80.1804 92.6697 79.8537 93.1096 79.4557 93.4789C79.0577 93.8503 78.6081 94.162 78.1211 94.4042C77.7149 94.6146 77.2872 94.7802 76.8455 94.8982C76.1258 95.1015 75.3621 95.0858 74.6513 94.853C74.3387 94.7482 74.0546 94.5721 73.8212 94.3385C73.5878 94.1049 73.4116 93.8202 73.3064 93.5067C73.0545 94.5503 72.798 95.653 72.5369 96.8149C72.2757 97.9767 72.0446 99.214 71.8436 100.527C71.8436 100.648 71.7881 100.718 71.7223 100.732C71.5975 100.763 71.4658 100.669 71.3202 100.457C71.1744 100.247 71.0697 100.011 71.0117 99.7613C70.964 99.5527 70.9304 99.3412 70.9112 99.1282C70.8887 98.848 70.8887 98.5665 70.9112 98.2863C70.9354 97.9767 71.0117 97.4758 71.1399 96.7766C71.2682 96.0774 71.4207 95.3017 71.601 94.4425C71.7812 93.5833 71.9857 92.7032 72.211 91.7744C72.4363 90.8456 72.6582 90.0177 72.8766 89.2489C73.0513 88.6046 73.2584 87.9695 73.497 87.3461C73.6912 86.8487 73.8437 86.5808 73.9962 86.5495C74.1487 86.5182 74.2319 86.6052 74.3428 86.8104C74.4467 87.0037 74.5259 87.2094 74.5785 87.4227L74.6167 87.5861C74.8351 87.2696 75.0925 86.9821 75.3827 86.7304C75.6498 86.4859 75.9722 86.3104 76.3221 86.2191C76.5492 86.1581 76.7883 86.1581 77.0154 86.2191C77.243 86.287 77.455 86.3993 77.6393 86.5495C77.8338 86.7117 77.9981 86.9072 78.1246 87.127C78.2589 87.3559 78.3593 87.6031 78.4227 87.861C78.5542 88.4378 78.5951 89.0317 78.544 89.6211C78.4984 90.247 78.3916 90.8668 78.2251 91.4717C78.0803 92.0372 77.8866 92.5889 77.6463 93.1206C77.4594 93.5409 77.2066 93.9285 76.8975 94.2685ZM73.9685 91.1969C73.9188 91.5543 73.8933 91.9145 73.8922 92.2753C73.8911 92.5797 73.9248 92.8831 73.9927 93.1797C74.0574 93.4666 74.1854 93.7352 74.3671 93.9659C74.4321 94.0636 74.5257 94.1387 74.6348 94.181C74.744 94.2234 74.8636 94.2309 74.9772 94.2025C75.208 94.1219 75.4064 93.968 75.5422 93.7641C75.7666 93.4782 75.9563 93.1664 76.1072 92.8354C76.2976 92.4297 76.4597 92.0112 76.5925 91.5831C76.7359 91.1267 76.8516 90.662 76.9391 90.1916C77.0254 89.7324 77.0764 89.2672 77.0916 88.8002C77.1098 88.3996 77.0749 87.9984 76.9877 87.607C76.8559 87.0678 76.641 86.8313 76.3602 86.9113C76.1822 86.9727 76.0216 87.0766 75.8923 87.2139C75.6919 87.4087 75.5129 87.6244 75.3585 87.8575C75.1588 88.1498 74.9793 88.4554 74.8212 88.7724C74.6413 89.1309 74.4928 89.5046 74.3775 89.889L73.9685 91.1969Z" fill="white"/>
<path d="M86.5584 87.5165C86.4482 87.7028 86.2765 87.8443 86.0731 87.9166C86.0694 88.4845 86.0031 89.0503 85.8755 89.6037C85.7502 90.176 85.5619 90.7325 85.3139 91.263C85.0892 91.7518 84.7898 92.2025 84.4265 92.5988C84.1067 92.9542 83.6895 93.2071 83.2272 93.3258C82.9627 93.3826 82.69 93.3897 82.423 93.3467C82.1032 93.3032 81.7948 93.1981 81.5148 93.0371C81.1995 92.8595 80.9207 92.6234 80.6933 92.3413C80.4273 91.996 80.2414 91.5956 80.1491 91.1691C80.0083 90.5342 79.9824 89.879 80.0728 89.235C80.1561 88.531 80.3382 87.8424 80.6135 87.1895C80.8742 86.5692 81.2323 85.9949 81.6743 85.4885C82.0463 85.0352 82.5506 84.7103 83.1163 84.5597C83.336 84.4967 83.569 84.4967 83.7887 84.5597C84.0415 84.6495 84.2763 84.7838 84.482 84.9563C84.6184 85.0742 84.7671 85.1769 84.9257 85.2624C85.0627 85.3449 85.1916 85.4404 85.3105 85.5476C85.4452 85.6696 85.5619 85.8101 85.6571 85.9651C85.7821 86.181 85.8711 86.416 85.9205 86.6608L86.0731 87.4678C86.1427 87.453 86.2102 87.4297 86.2741 87.3983C86.3388 87.3687 86.4061 87.3454 86.4752 87.3287C86.5549 87.3078 86.6034 87.3287 86.6173 87.3809C86.6155 87.4319 86.5944 87.4804 86.5584 87.5165ZM84.6588 87.9792C84.4961 87.9457 84.3379 87.8931 84.1874 87.8226C83.9954 87.73 83.816 87.6131 83.6535 87.4748C83.4678 87.3217 83.3013 87.1465 83.1579 86.953C83.0053 86.7449 82.8957 86.5084 82.8355 86.2573C82.5445 86.6625 82.3014 87.1002 82.111 87.5618C81.9113 88.0422 81.7536 88.5392 81.6396 89.0471C81.5253 89.5332 81.4602 90.0297 81.4455 90.529C81.4285 90.9637 81.4681 91.3987 81.5633 91.823C81.7262 92.4944 82.0348 92.7727 82.4819 92.6614C82.7493 92.585 82.9896 92.4342 83.1752 92.2266C83.4393 91.9399 83.659 91.6151 83.8269 91.263C84.0522 90.8036 84.2333 90.3237 84.3676 89.8298C84.5254 89.2241 84.623 88.6042 84.6588 87.9792ZM84.6588 87.3913C84.6712 86.9698 84.6339 86.5483 84.5479 86.1355C84.5148 85.9394 84.4325 85.7551 84.3087 85.5998C84.2116 85.4989 84.1319 85.4572 84.0626 85.4711C83.9932 85.485 83.9205 85.579 83.8789 85.7355C83.8378 85.9351 83.8461 86.1417 83.9031 86.3373C83.9591 86.5657 84.0592 86.7808 84.1978 86.9704C84.3219 87.144 84.4829 87.2877 84.6692 87.3913H84.6588Z" fill="white"/>
<path d="M95.4668 88.094C95.2086 88.8412 94.7787 89.5169 94.2119 90.0664C93.5753 90.6915 92.8786 91.252 92.1321 91.7396C91.9935 92.5397 91.841 93.371 91.6676 94.2442C91.5087 95.0715 91.3073 95.89 91.0645 96.6966C90.8668 97.3757 90.5886 98.0285 90.236 98.6411C90.1256 98.8636 89.9722 99.0618 89.7848 99.2242C89.5973 99.3867 89.3795 99.5101 89.1441 99.5873C88.9672 99.6244 88.783 99.6012 88.6207 99.5212C88.4204 99.4321 88.2337 99.3149 88.0661 99.1734C87.8767 99.0025 87.7122 98.8057 87.5773 98.5889C87.4379 98.3606 87.335 98.1118 87.2723 97.8515C87.1326 97.2943 87.1326 96.7111 87.2723 96.1539C87.4131 95.5823 87.6474 95.0381 87.9656 94.5433C88.3034 94.0186 88.7026 93.5363 89.1545 93.1067C89.609 92.6672 90.1034 92.2713 90.6312 91.924C90.6832 91.6665 90.7283 91.4056 90.7664 91.1378C90.7926 90.8831 90.832 90.63 90.8842 90.3795C90.6678 90.7398 90.4017 91.0677 90.0939 91.3535C89.8 91.6239 89.442 91.8143 89.054 91.9066C88.8226 91.9788 88.5772 91.9938 88.3387 91.9502C88.1003 91.9066 87.8759 91.8057 87.6848 91.6561C87.2929 91.3172 87.0246 90.857 86.9222 90.3481C86.815 89.8502 86.7858 89.3385 86.8355 88.8315C86.893 88.2186 87.0317 87.6161 87.248 87.04C87.4849 86.4111 87.7748 85.8036 88.1146 85.2242C88.3723 84.7603 88.6754 84.3233 89.0193 83.9197C89.2876 83.6044 89.5952 83.325 89.9345 83.0883C90.19 82.9069 90.475 82.7716 90.7768 82.6883C90.9483 82.63 91.1318 82.6164 91.31 82.6487C91.4882 82.6809 91.6554 82.758 91.7959 82.8726C92.054 83.103 92.2345 83.4081 92.3124 83.7458C92.3609 83.5881 92.406 83.4176 92.4476 83.2344C92.4926 83.064 92.5377 82.8866 92.5897 82.7439C92.6317 82.6041 92.6851 82.468 92.7491 82.3369C92.8081 82.2221 92.8705 82.156 92.9398 82.1387C93.075 82.1039 93.2206 82.1874 93.38 82.3891C93.5468 82.6046 93.665 82.8538 93.7267 83.1196C93.7857 83.5067 93.7763 83.9012 93.6989 84.2849C93.6157 84.8172 93.4979 85.4364 93.3523 86.1356C93.2067 86.8348 93.0299 87.5896 92.8462 88.3827C92.6625 89.1759 92.4822 90.0107 92.3366 90.8178C93.0255 90.2387 93.6351 89.5709 94.1495 88.8315C94.5775 88.2057 94.9454 87.5406 95.2484 86.8452C95.2598 86.804 95.2819 86.7666 95.3123 86.7367C95.3427 86.7067 95.3804 86.6854 95.4217 86.6747C95.464 86.6708 95.5061 86.6833 95.5396 86.7095C95.6032 86.763 95.6442 86.8389 95.6539 86.9217C95.696 87.3222 95.6315 87.7268 95.4668 88.094ZM90.5133 92.8423C90.0475 93.2898 89.643 93.7975 89.3105 94.352C89.0256 94.8371 88.7931 95.3514 88.6172 95.8861C88.4668 96.3203 88.369 96.7711 88.3261 97.2288C88.2907 97.5394 88.3012 97.8536 88.3573 98.1611C88.3758 98.2439 88.4062 98.3235 88.4474 98.3976C88.4844 98.4602 88.5294 98.4846 88.5826 98.4707C88.6935 98.4463 88.8322 98.2863 88.9985 97.9941C89.2052 97.6138 89.3802 97.2171 89.522 96.8079C89.7057 96.3105 89.8686 95.7226 90.0592 95.0477C90.2499 94.3729 90.3747 93.6354 90.5133 92.8423ZM91.321 87.4261C91.5321 86.7438 91.6897 86.046 91.7924 85.339C91.862 84.9233 91.862 84.4989 91.7924 84.0832C91.7092 83.7353 91.5463 83.6031 91.3002 83.6623C91.0697 83.7488 90.8663 83.8952 90.7109 84.0867C90.4496 84.3773 90.2174 84.6931 90.0176 85.0294C89.7612 85.4429 89.5297 85.8716 89.3244 86.313C89.0914 86.7803 88.8955 87.2653 88.7386 87.7635C88.5926 88.2425 88.4905 88.7339 88.4335 89.2315C88.3774 89.6747 88.3985 90.1244 88.4959 90.5603C88.6172 91.0647 88.8425 91.2769 89.1684 91.1969C89.5636 91.0995 89.9449 90.7064 90.3123 90.0107C90.7329 89.1848 91.0708 88.319 91.321 87.4261Z" fill="white"/>
<path d="M103.682 88.3306C103.459 88.4073 103.222 88.4336 102.988 88.4078C102.753 88.3819 102.528 88.3045 102.327 88.181C101.967 87.902 101.721 87.5015 101.633 87.0539C101.552 86.6428 101.535 86.2216 101.581 85.8051C101.629 85.2459 101.706 84.6897 101.814 84.1388C101.428 84.595 101.001 85.0142 100.538 85.3911C100.553 85.8558 100.482 86.3191 100.33 86.7582C100.172 87.2366 99.9467 87.6899 99.661 88.1045C99.382 88.5189 99.0405 88.8874 98.6488 89.1967C98.2834 89.4908 97.8589 89.702 97.4044 89.8159C97.1477 89.9016 96.8754 89.93 96.6066 89.8993C96.3378 89.8686 96.0789 89.7794 95.8479 89.638C95.6169 89.4966 95.4195 89.3064 95.2692 89.0806C95.119 88.8548 95.0196 88.5988 94.978 88.3306C94.8497 87.7949 94.8983 86.9391 95.134 85.7564C95.4728 84.2295 95.9365 82.7333 96.5205 81.2829C96.5368 81.2292 96.5658 81.1803 96.6051 81.1404C96.6443 81.1004 96.6926 81.0705 96.7458 81.0533C96.7928 81.043 96.8414 81.0427 96.8886 81.0522C96.9357 81.0618 96.9804 81.0811 97.0197 81.109C97.111 81.173 97.1887 81.2546 97.2484 81.349C97.3194 81.4528 97.3798 81.5635 97.4287 81.6795C97.4733 81.7845 97.5104 81.8926 97.5396 82.003C97.6526 82.6841 97.5819 83.3831 97.3351 84.0275C97.1895 84.4913 97.0474 84.947 96.9087 85.3946C96.7736 85.8434 96.6592 86.2678 96.5621 86.6643C96.477 87.0174 96.4121 87.3751 96.368 87.7357C96.3273 88.0052 96.3356 88.2797 96.3923 88.5462C96.4012 88.6265 96.426 88.7042 96.4653 88.7747C96.5046 88.8452 96.5575 88.9071 96.621 88.9567C96.7618 89.0098 96.917 89.0098 97.0578 88.9567C97.2186 88.9084 97.3716 88.8369 97.5119 88.7445C97.7229 88.6107 97.9132 88.4466 98.0769 88.2575C98.2929 88.0097 98.478 87.7364 98.628 87.4435C98.8198 87.0578 98.9641 86.6501 99.0579 86.2295C98.9298 86.2887 98.7963 86.3353 98.6592 86.3686C98.39 86.4473 98.1018 86.4289 97.8447 86.3165C97.7193 86.2565 97.6104 86.1669 97.5271 86.0554C97.4438 85.944 97.3886 85.8139 97.3663 85.6764C97.2938 85.3558 97.3432 85.0196 97.505 84.7337C97.6176 84.5506 97.7693 84.3948 97.9491 84.2775C98.1289 84.1602 98.3324 84.0844 98.5449 84.0554C98.8954 83.9578 99.2668 83.9663 99.6125 84.0797C99.9458 84.2083 100.22 84.4561 100.382 84.7754C100.799 84.3581 101.175 83.9002 101.502 83.4083C101.814 82.951 102.095 82.4734 102.344 81.9786C102.403 81.7456 102.472 81.5021 102.545 81.2412C102.618 80.9803 102.698 80.7368 102.777 80.5072C102.845 80.3117 102.926 80.1211 103.02 79.9367C103.096 79.7836 103.169 79.7001 103.238 79.6828C103.363 79.6549 103.495 79.7349 103.644 79.9228C103.801 80.1374 103.912 80.3826 103.97 80.6428C104.057 81.1046 104.04 81.5804 103.918 82.0343C103.793 82.5909 103.652 83.1706 103.495 83.7736C103.338 84.3766 103.199 84.9911 103.079 85.6173C102.968 86.1343 102.968 86.6691 103.079 87.1861C103.179 87.6001 103.384 87.767 103.699 87.6905C103.956 87.6195 104.187 87.4758 104.365 87.2765C104.594 87.0368 104.791 86.7678 104.951 86.4765C105.139 86.137 105.296 85.7806 105.419 85.412C105.553 85.0159 105.658 84.6101 105.731 84.198C105.734 84.1608 105.749 84.1255 105.772 84.0964C105.795 84.0674 105.827 84.0459 105.862 84.0345C105.946 84.0136 106.025 84.0623 106.105 84.1736C106.178 84.279 106.231 84.3969 106.261 84.5215C106.36 84.9365 106.337 85.3715 106.195 85.7738C106.053 86.1929 105.845 86.5864 105.578 86.9391C105.32 87.2867 105.011 87.5938 104.663 87.8505C104.371 88.0736 104.037 88.2367 103.682 88.3306ZM98.68 85.8955C98.9504 85.8294 99.0925 85.7425 99.1029 85.6381C99.1109 85.5068 99.0969 85.3751 99.0613 85.2485C99.0537 85.1741 99.0291 85.1024 98.9894 85.0391C98.9498 84.9757 98.8961 84.9224 98.8326 84.8833C98.7238 84.8338 98.6012 84.8239 98.4859 84.8554C98.3522 84.8944 98.232 84.9703 98.1393 85.0746C98.085 85.1376 98.0479 85.2136 98.0315 85.2953C98.0151 85.377 98.02 85.4615 98.0457 85.5407C98.0588 85.6088 98.0876 85.6729 98.1297 85.7278C98.1718 85.7828 98.2261 85.8271 98.2883 85.8573C98.4066 85.9262 98.5463 85.9485 98.68 85.9199V85.8955Z" fill="white"/>
</g>
<defs>
<filter id="filter0_d_844_31" x="16.7097" y="56.9192" width="93.6118" height="56.0112" filterUnits="userSpaceOnUse" color-interpolation-filters="sRGB">
<feFlood flood-opacity="0" result="BackgroundImageFix"/>
<feColorMatrix in="SourceAlpha" type="matrix" values="0 0 0 0 0 0 0 0 0 0 0 0 0 0 0 0 0 0 127 0" result="hardAlpha"/>
<feOffset dy="2"/>
<feGaussianBlur stdDeviation="2"/>
<feColorMatrix type="matrix" values="0 0 0 0 0 0 0 0 0 0 0 0 0 0 0 0 0 0 0.25 0"/>
<feBlend mode="normal" in2="BackgroundImageFix" result="effect1_dropShadow_844_31"/>
<feBlend mode="normal" in="SourceGraphic" in2="effect1_dropShadow_844_31" result="shape"/>
</filter>
</defs>
</svg>
