<svg width="153" height="54" viewBox="0 0 153 54" fill="none" xmlns="http://www.w3.org/2000/svg">
<path fill-rule="evenodd" clip-rule="evenodd" d="M28.0336 46.0115C28.4022 46.6116 28.7509 47.2343 29.0798 47.8796C29.0928 47.913 29.1134 47.9429 29.1399 47.967C29.1665 47.991 29.1983 48.0086 29.2329 48.0183C29.299 47.9988 29.3589 47.9625 29.4066 47.9129C29.4543 47.8632 29.4883 47.802 29.5051 47.7352C29.5973 47.5374 29.6438 47.3213 29.6411 47.1031C29.6391 46.912 29.6134 46.7219 29.5646 46.537C29.5003 46.2994 29.4149 46.0679 29.3094 45.8455C29.1903 45.5857 29.0401 45.2944 28.8586 44.9718C28.6772 44.6491 28.4503 44.2682 28.1782 43.8292C28.7565 43.4141 29.3236 42.9816 29.8793 42.5319C30.435 42.0822 30.9538 41.6419 31.4358 41.211C31.9177 40.7777 32.343 40.371 32.7116 39.9911C33.0136 39.6873 33.295 39.3635 33.5537 39.0221C33.7483 38.7797 33.9033 38.5081 34.0129 38.2174C34.0862 38.0143 34.1264 37.8009 34.132 37.5852C34.133 37.4654 34.1158 37.3461 34.081 37.2314C34.0766 37.1911 34.0594 37.1533 34.0318 37.1236C34.0042 37.0938 33.9678 37.0738 33.9279 37.0663C33.8922 37.0754 33.8587 37.0916 33.8294 37.114C33.8002 37.1364 33.7758 37.1644 33.7578 37.1965C33.3495 37.6456 32.8987 38.1114 32.4054 38.5938C31.9121 39.0762 31.3989 39.5593 30.8659 40.043C30.3329 40.5261 29.7829 41.0035 29.2158 41.4752C28.6488 41.947 28.0875 42.3954 27.5318 42.8206C27.8266 42.2545 28.1044 41.7281 28.3653 41.2412C28.6261 40.7676 28.8558 40.3311 29.0542 39.9317C29.2338 39.5806 29.3916 39.2189 29.5267 38.8486C29.6314 38.5717 29.689 38.2792 29.6969 37.9834C29.7029 37.7729 29.6652 37.5635 29.5863 37.3682C29.5732 37.3074 29.543 37.2515 29.4993 37.2071C29.4557 37.1627 29.4003 37.1315 29.3396 37.1172C29.1828 37.1823 29.0556 37.303 28.9824 37.456C28.8236 37.6805 28.6365 37.9777 28.4211 38.3476C28.2056 38.7174 27.9703 39.1442 27.7151 39.6279C27.4631 40.1116 27.2079 40.6148 26.9496 41.1374C26.6913 41.6601 26.4418 42.1822 26.2011 42.7036C25.9573 43.2282 25.7333 43.7157 25.5292 44.166C25.3251 44.6164 25.155 45.0086 25.0189 45.3426C24.8828 45.6775 24.792 45.919 24.7467 46.0691C24.69 46.2889 24.6446 46.4785 24.6106 46.6399C24.5782 46.7877 24.5611 46.9385 24.5596 47.0899C24.5581 47.3163 24.6015 47.5407 24.6872 47.7503C24.6989 47.8212 24.7296 47.8875 24.776 47.9423C24.8225 47.9971 24.8828 48.0383 24.9508 48.0617C24.9868 48.0553 25.0202 48.0389 25.0473 48.0143C25.0744 47.9898 25.094 47.9581 25.1039 47.923C25.3874 47.2663 25.6766 46.6267 25.9715 46.004C26.2663 45.3813 26.5612 44.7812 26.856 44.2038C27.2725 44.8089 27.665 45.4114 28.0336 46.0115ZM30.9236 44.7538C30.7629 44.8975 30.6303 45.0696 30.5323 45.2614C30.4212 45.4777 30.3383 45.7072 30.2857 45.9445C30.2298 46.1875 30.2012 46.4359 30.2006 46.6852C30.1938 46.9954 30.2585 47.303 30.3896 47.5843C30.4356 47.6992 30.5156 47.7974 30.6189 47.8659C30.7223 47.9343 30.844 47.9697 30.968 47.9673C31.3633 47.9539 31.7394 47.7938 32.0227 47.5182C32.3906 47.187 32.7137 46.8092 32.9838 46.3946C33.2843 45.9455 33.5763 45.4567 33.8598 44.9284C34.132 44.4126 34.3928 43.9314 34.6423 43.4848C34.8544 43.0986 35.0901 42.7259 35.3483 42.3687C35.4132 42.2504 35.5045 42.1485 35.6151 42.071C35.7257 41.9934 35.8527 41.9423 35.9862 41.9215C36.0022 41.919 36.0185 41.9203 36.0339 41.9252C36.0492 41.9301 36.0632 41.9385 36.0748 41.9498C36.0864 41.961 36.0951 41.9748 36.1004 41.9901C36.1057 42.0053 36.1074 42.0215 36.1053 42.0375C36.0688 42.3556 35.9675 42.6629 35.8076 42.9404C35.6091 43.3436 35.3965 43.777 35.1697 44.2406C34.9315 44.7048 34.7132 45.163 34.5148 45.6152C34.34 45.9727 34.2387 46.3615 34.2171 46.7587C34.2049 46.9255 34.2298 47.0928 34.2901 47.2488C34.3504 47.4047 34.4446 47.5454 34.5658 47.6607C34.8089 47.8691 35.1216 47.9786 35.4419 47.9673C35.7714 47.9618 36.095 47.8794 36.3869 47.7268C36.7103 47.5663 37.0083 47.3594 37.2715 47.1126C37.5289 46.8754 37.7496 46.6013 37.9264 46.2993C38.0862 46.0421 38.1743 45.747 38.1816 45.4445C38.1882 45.3368 38.1614 45.2298 38.105 45.1378C38.0908 45.1099 38.0704 45.0856 38.0454 45.0668C38.0203 45.048 37.9912 45.0352 37.9604 45.0293C37.9268 45.0345 37.8956 45.05 37.8712 45.0736C37.8468 45.0973 37.8304 45.128 37.8243 45.1614C37.6542 45.4583 37.4785 45.7414 37.297 46.0106C37.1303 46.2607 36.9485 46.5004 36.7526 46.7285C36.5968 46.9136 36.4198 47.0799 36.2253 47.2239C36.0995 47.3274 35.9454 47.3906 35.783 47.405C35.694 47.4056 35.6072 47.3767 35.5363 47.3229C35.4948 47.2823 35.4632 47.2327 35.4441 47.1778C35.4249 47.123 35.4186 47.0645 35.4258 47.0069C35.4632 46.6902 35.5676 46.385 35.732 46.1115L36.3936 44.8189C36.6317 44.3538 36.8528 43.8905 37.055 43.4254C37.2369 43.0523 37.3411 42.6463 37.3613 42.2319C37.3637 42.0788 37.3331 41.927 37.2714 41.7868C37.2098 41.6466 37.1186 41.5214 37.0041 41.4195C36.7805 41.2042 36.4812 41.085 36.1705 41.0874C36.0028 41.1042 35.8403 41.1546 35.6927 41.2357C35.545 41.3167 35.4154 41.4268 35.3114 41.5592C34.9736 41.9223 34.6663 42.3127 34.3929 42.7263C34.081 43.1886 33.772 43.689 33.4658 44.2274C33.1596 44.7658 32.8647 45.2668 32.5812 45.7303C32.338 46.1355 32.0651 46.5222 31.7647 46.8871C31.6871 47.0085 31.5849 47.1125 31.4648 47.1924C31.3448 47.2724 31.2093 47.3264 31.0672 47.3512C31.0229 47.3514 30.9796 47.338 30.9431 47.3129C30.9066 47.2878 30.8787 47.2521 30.8631 47.2107C30.8213 47.131 30.7981 47.043 30.795 46.9531C31.0857 46.6392 31.3292 46.2848 31.518 45.9011C31.6816 45.6078 31.7784 45.2822 31.8015 44.9473C31.8068 44.8448 31.78 44.7433 31.725 44.6566C31.6932 44.6185 31.6525 44.5888 31.6066 44.5701C31.5606 44.5513 31.5107 44.5441 31.4613 44.5491C31.2613 44.5466 31.0679 44.6197 30.9198 44.7538H30.9236ZM44.4123 45.5898C44.4519 45.4747 44.4747 45.3546 44.4803 45.2331C44.4865 45.1641 44.4685 45.0951 44.4293 45.0378C44.41 45.0076 44.3794 44.9862 44.3443 44.9784C44.3122 44.9809 44.2812 44.9916 44.2544 45.0095C44.2277 45.0273 44.2059 45.0517 44.1912 45.0803C43.8236 45.5863 43.4046 46.053 42.9409 46.4729C42.4084 46.9545 41.8168 47.3667 41.1802 47.6994C41.4637 47.0786 41.7529 46.4659 42.0478 45.8615C42.3426 45.257 42.6148 44.701 42.8643 44.1934C43.1163 43.6858 43.3205 43.237 43.4767 42.847C43.6098 42.5615 43.6904 42.2544 43.7148 41.9404C43.7185 41.7354 43.6839 41.5316 43.6128 41.3394C43.6021 41.2748 43.572 41.215 43.5264 41.1679C43.4808 41.1209 43.4219 41.0889 43.3576 41.0761C43.1633 41.1555 43.0077 41.3075 42.9238 41.4997C42.7348 41.7815 42.5307 42.1202 42.3114 42.5159C42.0922 42.9115 41.8682 43.3295 41.6395 43.7698C41.4127 44.2101 41.2086 44.5875 41.0271 44.902C40.6672 45.5523 40.2426 46.1649 39.7598 46.7304C39.6309 46.914 39.4654 47.0689 39.2736 47.1855C39.0819 47.3021 38.8681 47.3778 38.6456 47.4079C38.5949 47.4108 38.5445 47.3988 38.5006 47.3733C38.4567 47.3478 38.4213 47.3099 38.3989 47.2645C38.3452 47.1571 38.3189 47.0381 38.3224 46.9182C38.3593 46.3868 38.5163 45.8707 38.7817 45.4086C39.0879 44.8054 39.4508 44.166 39.8704 43.4905C40.1896 43.0403 40.3834 42.5135 40.4317 41.9639C40.4302 41.8721 40.4189 41.7807 40.3977 41.6913C40.3768 41.5937 40.3451 41.4988 40.3032 41.4082C40.2667 41.3274 40.2179 41.2526 40.1586 41.1865C40.1386 41.1596 40.1131 41.1372 40.0838 41.121C40.0544 41.1047 40.0219 41.0949 39.9885 41.0922C39.9435 41.0956 39.8999 41.1097 39.8614 41.1333C39.823 41.157 39.7907 41.1894 39.7673 41.228C39.3818 41.7815 39.033 42.3237 38.7212 42.8546C38.4093 43.3855 38.1428 43.8887 37.9217 44.3642C37.7208 44.7862 37.5503 45.2219 37.4113 45.6681C37.3047 45.9913 37.2446 46.328 37.2328 46.6682C37.2229 46.9968 37.3182 47.32 37.5049 47.5909C37.6149 47.7247 37.7563 47.8292 37.9166 47.895C38.0769 47.9609 38.2511 47.9861 38.4235 47.9683C38.7546 47.9675 39.0789 47.8737 39.3591 47.6975C39.6585 47.5132 39.9329 47.2912 40.1756 47.0371C40.0849 47.2428 39.9999 47.4478 39.9205 47.6522C39.8298 47.868 39.739 48.0727 39.6483 48.2664C39.1755 48.4512 38.7178 48.672 38.2789 48.9269C37.844 49.1773 37.4388 49.4761 37.0711 49.8175C36.7234 50.1385 36.4304 50.5139 36.2036 50.929C35.9829 51.3342 35.8688 51.7886 35.8719 52.2498C35.8694 52.4841 35.9098 52.7169 35.9909 52.9367C36.0633 53.132 36.1604 53.3172 36.2801 53.4877C36.3799 53.6331 36.5035 53.7607 36.6459 53.8651C36.746 53.9437 36.8675 53.9907 36.9946 54C37.2056 53.9878 37.4118 53.9325 37.6005 53.8376C37.7892 53.7427 37.9565 53.6101 38.0918 53.4481C38.4896 53.0274 38.8383 52.5631 39.1313 52.064C39.4841 51.4744 39.8022 50.8648 40.084 50.2383C40.3845 49.576 40.6538 48.9561 40.892 48.3787C41.5567 48.1092 42.1994 47.7884 42.8142 47.4192C43.3609 47.0938 43.8217 46.6425 44.1581 46.103C44.2655 45.9448 44.351 45.7728 44.4123 45.5917V45.5898ZM38.6295 50.5742C38.363 51.0667 38.1079 51.4969 37.864 51.8649C37.6699 52.1684 37.4508 52.4553 37.2091 52.7225C37.1049 52.8684 36.9554 52.9759 36.7838 53.0282C36.7583 53.0296 36.7331 53.0219 36.7128 53.0063C36.6925 52.9907 36.6784 52.9683 36.6733 52.9433C36.6543 52.8713 36.6458 52.797 36.6478 52.7225C36.6616 52.461 36.7161 52.2031 36.8093 51.9583C36.935 51.6051 37.1036 51.2686 37.3112 50.9563C37.5596 50.5785 37.8445 50.2258 38.1617 49.9034C38.5248 49.5355 38.9385 49.221 39.3903 48.9693C39.1649 49.5172 38.911 50.0529 38.6295 50.5742V50.5742ZM48.7085 41.8064C48.6138 42.4212 48.4658 43.0267 48.2663 43.616C48.0609 44.2471 47.799 44.8584 47.4837 45.4426C47.2154 45.9526 46.8808 46.4249 46.4886 46.8474C46.3567 47.0098 46.1928 47.1433 46.0069 47.2396C45.8211 47.3359 45.6173 47.3928 45.4084 47.4069C45.1476 47.4069 45.0172 47.1943 45.0172 46.7691C45.0307 46.18 45.1638 45.5996 45.4084 45.0633C45.6603 44.4709 45.9708 43.9051 46.3355 43.3745C46.649 42.9094 47.0111 42.479 47.4157 42.0904C47.6344 41.8308 47.9338 41.6518 48.2663 41.5818C48.3541 41.5698 48.4436 41.5848 48.5226 41.6249C48.6017 41.6651 48.6665 41.7284 48.7085 41.8064V41.8064V41.8064ZM49.3974 40.3968C49.3102 40.0563 49.2052 39.7206 49.0827 39.3911C49.0657 39.3471 49.0543 39.3011 49.0488 39.2542C49.0665 39.1927 49.1036 39.1385 49.1547 39.0997C49.2058 39.0609 49.2681 39.0397 49.3323 39.0391C49.5587 38.9805 49.7889 38.9373 50.0212 38.9099C50.2934 38.8759 50.5769 38.8416 50.8717 38.807C51.1245 38.791 51.3752 38.7509 51.6203 38.6872C52.1071 38.6074 52.5547 38.372 52.8961 38.0164C53.1501 37.6683 53.2762 37.2435 53.2533 36.8135C53.2533 36.6191 53.2136 36.521 53.1342 36.521C53.1058 36.5215 53.0781 36.5297 53.0541 36.5449C53.0301 36.56 53.0107 36.5814 52.9981 36.6068C52.7466 36.9405 52.4083 37.1989 52.02 37.3541C51.608 37.5231 51.1808 37.6527 50.7442 37.7409C50.2962 37.8327 49.8454 37.9126 49.3918 37.9805C48.9808 38.0393 48.5763 38.1372 48.184 38.273C48.1142 38.2812 48.0492 38.3128 47.9998 38.3627C47.9503 38.4126 47.9193 38.4778 47.9119 38.5476C47.9139 38.5804 47.9225 38.6125 47.9371 38.642C47.9517 38.6714 47.972 38.6977 47.9969 38.7193C48.2582 38.9916 48.4583 39.3165 48.5838 39.6722C48.7581 40.1475 48.8417 40.6512 48.8304 41.1573C48.7457 41.0452 48.6347 40.9556 48.5071 40.8964C48.3796 40.8372 48.2394 40.8101 48.099 40.8176C47.765 40.8247 47.438 40.9135 47.1464 41.0761C46.7969 41.2623 46.4713 41.4901 46.1767 41.7545C45.8451 42.0509 45.5431 42.3789 45.2751 42.7338C44.9942 43.1025 44.7439 43.4935 44.5266 43.9028C44.3174 44.2943 44.1465 44.705 44.0163 45.1293C43.8973 45.5017 43.8336 45.8896 43.8273 46.2804C43.8091 46.7192 43.9512 47.1498 44.2271 47.4918C44.4011 47.6639 44.611 47.7954 44.8419 47.8769C45.0727 47.9585 45.3188 47.9881 45.5624 47.9636C45.8233 47.9598 46.0819 47.9136 46.3279 47.8268C46.6221 47.7234 46.8999 47.5785 47.1529 47.3965C47.4554 47.1798 47.7297 46.9262 47.9695 46.6417C48.2582 46.2989 48.5065 45.9241 48.7095 45.5247C49.0707 44.8897 49.3209 44.198 49.4494 43.4792C49.5251 42.9955 49.5677 42.5072 49.577 42.0177C49.5874 41.4719 49.527 40.9271 49.3974 40.3968V40.3968ZM59.0512 42.0574C58.9601 42.4114 58.8494 42.7601 58.7195 43.1018C58.5777 43.4792 58.4133 43.8641 58.2262 44.2566C58.0391 44.6491 57.8349 45.0284 57.6138 45.3945C57.4132 45.733 57.1923 46.0591 56.9522 46.371C56.7601 46.6237 56.5405 46.8544 56.2973 47.0588C56.1348 47.2119 55.9247 47.3048 55.7019 47.322C55.6105 47.3247 55.5197 47.3052 55.4374 47.2653C55.3552 47.2254 55.2838 47.1662 55.2294 47.0927C55.0885 46.8547 55.026 46.5785 55.0507 46.303C55.0565 45.9853 55.1111 45.6703 55.2124 45.369C55.3249 45.0179 55.4672 44.677 55.6377 44.35C55.8163 44.0056 56.018 43.6737 56.2415 43.3565C56.4533 43.0521 56.6894 42.7653 56.9475 42.4989C57.162 42.2741 57.4017 42.0746 57.6619 41.9045C57.8494 41.7723 58.0706 41.6957 58.2999 41.6837C58.449 41.6536 58.6038 41.6745 58.7396 41.743C58.8754 41.8114 58.9841 41.9235 59.0484 42.0611V42.0611L59.0512 42.0574ZM60.5056 38.7287C60.4016 38.4148 60.2336 38.1256 60.0123 37.8796C59.8071 37.6564 59.5542 37.4822 59.2723 37.3701C58.9855 37.2563 58.6794 37.1986 58.3707 37.2003C58.0209 37.1945 57.6728 37.2491 57.3416 37.3616C57.0671 37.455 56.8112 37.5958 56.5855 37.7777C56.3926 37.9316 56.232 38.122 56.113 38.3381C55.9578 38.6143 55.9123 38.9386 55.9854 39.2467C55.9851 39.2809 55.9969 39.3141 56.0186 39.3405C56.0404 39.3669 56.0708 39.3848 56.1045 39.3911C56.1586 39.3798 56.2068 39.3497 56.2406 39.3061C56.5788 38.9486 56.9721 38.6476 57.4058 38.4145C57.7575 38.2187 58.1515 38.1109 58.5541 38.1004C58.7198 38.0819 58.8875 38.1022 59.044 38.1597C59.2005 38.2171 59.3415 38.3102 59.4557 38.4315C59.6409 38.7034 59.7306 39.0289 59.7108 39.3571C59.7108 39.4363 59.7052 39.5496 59.6938 39.6967C59.6797 39.8648 59.6569 40.032 59.6258 40.1977C59.5917 40.3864 59.5493 40.5874 59.4982 40.8006C59.4472 41.0139 59.3876 41.2233 59.3196 41.429C59.2221 41.2716 59.0935 41.1358 58.9415 41.0299C58.6975 40.8618 58.4038 40.781 58.108 40.8006C57.5529 40.8165 57.0182 41.0133 56.5855 41.3611C56.0662 41.7493 55.6051 42.2097 55.2162 42.7282C54.8182 43.2483 54.4868 43.8159 54.2295 44.418C54.0028 44.9032 53.8743 45.4284 53.8515 45.9634C53.8133 46.5012 53.9771 47.034 54.3108 47.4579C54.4734 47.6305 54.6719 47.7655 54.8922 47.8535C55.1126 47.9416 55.3496 47.9804 55.5866 47.9673C55.9381 47.9697 56.286 47.8974 56.6073 47.7551C56.9262 47.6127 57.2239 47.4269 57.4918 47.2031C57.7665 46.9742 58.0172 46.7181 58.2403 46.4389C58.4604 46.1656 58.6594 45.8761 58.8357 45.5728C59.169 45.0304 59.4645 44.4658 59.7203 43.883C59.9406 43.3798 60.1299 42.8637 60.2873 42.3376C60.4192 41.9011 60.5187 41.4555 60.585 41.0044C60.6376 40.6501 60.666 40.2927 60.6701 39.9345C60.6831 39.5262 60.6275 39.1187 60.5056 38.7287V38.7287ZM59.9443 44.7538C59.7834 44.8973 59.6507 45.0694 59.553 45.2614C59.4415 45.4775 59.3586 45.7071 59.3064 45.9445C59.2505 46.1875 59.2219 46.4359 59.2213 46.6852C59.2145 46.9954 59.2792 47.303 59.4103 47.5843C59.4562 47.6993 59.5362 47.7976 59.6395 47.866C59.7429 47.9345 59.8647 47.9698 59.9887 47.9673C60.384 47.9539 60.76 47.7938 61.0433 47.5182C61.4113 47.187 61.7344 46.8092 62.0045 46.3946C62.305 45.9455 62.597 45.4567 62.8805 44.9284C63.1527 44.4126 63.4136 43.9314 63.6631 43.4848C63.8751 43.0986 64.1109 42.7259 64.369 42.3687C64.434 42.2504 64.5253 42.1485 64.6359 42.071C64.7465 41.9934 64.8734 41.9423 65.0069 41.9215C65.0229 41.919 65.0392 41.9203 65.0546 41.9252C65.0699 41.9301 65.084 41.9385 65.0955 41.9498C65.1071 41.961 65.1158 41.9748 65.1211 41.9901C65.1264 42.0053 65.1281 42.0215 65.126 42.0375C65.0895 42.3556 64.9882 42.6629 64.8283 42.9404C64.6298 43.3436 64.4172 43.777 64.1904 44.2406C63.9522 44.7048 63.7339 45.163 63.5355 45.6152C63.3607 45.9727 63.2594 46.3615 63.2378 46.7587C63.2256 46.9255 63.2506 47.0928 63.3109 47.2488C63.3711 47.4047 63.4653 47.5454 63.5865 47.6607C63.8296 47.8691 64.1423 47.9786 64.4626 47.9673C64.7921 47.9618 65.1157 47.8794 65.4076 47.7268C65.731 47.5663 66.029 47.3594 66.2922 47.1126C66.5496 46.8754 66.7704 46.6013 66.9471 46.2993C67.1069 46.0421 67.195 45.747 67.2023 45.4445C67.2089 45.3368 67.1822 45.2298 67.1257 45.1378C67.1115 45.1099 67.0911 45.0856 67.066 45.0668C67.041 45.048 67.0119 45.0352 66.9811 45.0293C66.9475 45.0345 66.9163 45.05 66.8919 45.0736C66.8675 45.0973 66.8512 45.128 66.8451 45.1614C66.6749 45.4583 66.4992 45.7414 66.3177 46.0106C66.151 46.2607 65.9692 46.5004 65.7733 46.7285C65.6175 46.9136 65.4406 47.0799 65.246 47.2239C65.1203 47.3274 64.9661 47.3906 64.8037 47.405C64.7147 47.4056 64.628 47.3767 64.5571 47.3229C64.5155 47.2823 64.4839 47.2327 64.4648 47.1778C64.4456 47.123 64.4393 47.0645 64.4465 47.0069C64.4839 46.6902 64.5883 46.385 64.7527 46.1115L65.4142 44.8189C65.6524 44.3538 65.8735 43.8905 66.0758 43.4254C66.2576 43.0523 66.3618 42.6463 66.382 42.2319C66.3844 42.0788 66.3538 41.927 66.2921 41.7868C66.2305 41.6466 66.1392 41.5214 66.0247 41.4195C65.8011 41.2042 65.5019 41.085 65.1912 41.0874C65.0236 41.1042 64.861 41.1546 64.7134 41.2357C64.5657 41.3167 64.4361 41.4268 64.3322 41.5592C63.9943 41.9223 63.687 42.3127 63.4135 42.7263C63.0985 43.1886 62.7895 43.689 62.4865 44.2274C62.1834 44.7658 61.8885 45.2668 61.6019 45.7303C61.3587 46.1355 61.0858 46.5222 60.7854 46.8871C60.7078 47.0085 60.6056 47.1125 60.4856 47.1924C60.3655 47.2724 60.2301 47.3264 60.0879 47.3512C60.0436 47.3514 60.0003 47.338 59.9638 47.3129C59.9273 47.2878 59.8994 47.2521 59.8838 47.2107C59.842 47.131 59.8188 47.043 59.8158 46.9531C60.1064 46.6392 60.3499 46.2848 60.5387 45.9011C60.7023 45.6078 60.7992 45.2822 60.8222 44.9473C60.8275 44.8448 60.8007 44.7433 60.7456 44.6566C60.7139 44.6185 60.6733 44.5888 60.6273 44.5701C60.5813 44.5513 60.5314 44.5441 60.482 44.5491C60.2833 44.5475 60.0914 44.6206 59.9443 44.7538ZM66.7912 44.7623C66.6263 44.8978 66.4903 45.065 66.3914 45.2539C66.2789 45.4666 66.196 45.6935 66.1447 45.9285C66.0888 46.1714 66.0603 46.4198 66.0597 46.6691C66.0395 46.8502 66.0562 47.0335 66.1088 47.208C66.1614 47.3824 66.2489 47.5445 66.3659 47.6843C66.5524 47.866 66.8027 47.9676 67.0633 47.9673C67.3753 47.9507 67.6801 47.8667 67.9564 47.7211C68.3353 47.5369 68.6968 47.319 69.0366 47.0701C69.4108 46.799 69.7908 46.4927 70.1763 46.1511C70.5619 45.8096 70.9249 45.4564 71.2651 45.0916C71.3096 45.088 71.3538 45.1014 71.3889 45.129C71.424 45.1567 71.4473 45.1966 71.4541 45.2407C71.446 45.366 71.408 45.4876 71.3435 45.5954L71.0968 46.0492C71.0037 46.2165 70.9213 46.3895 70.8502 46.5672C70.778 46.7384 70.7404 46.9221 70.7396 47.1078C70.7351 47.2322 70.7615 47.3558 70.8164 47.4676C70.8713 47.5794 70.953 47.6759 71.0543 47.7485C71.3129 47.9201 71.6204 48.0029 71.9304 47.9843C72.2599 47.9788 72.5835 47.8964 72.8754 47.7437C73.1986 47.583 73.4967 47.3761 73.76 47.1295C74.0172 46.8921 74.2379 46.618 74.4149 46.3162C74.5748 46.0591 74.6628 45.764 74.6701 45.4615C74.6767 45.3538 74.6499 45.2468 74.5935 45.1548C74.5792 45.127 74.5588 45.1028 74.5338 45.084C74.5087 45.0652 74.4797 45.0523 74.4489 45.0463C74.4152 45.0513 74.384 45.0668 74.3596 45.0905C74.3352 45.1142 74.3188 45.1449 74.3128 45.1784C74.1736 45.504 74.0056 45.8165 73.811 46.1124C73.642 46.3699 73.4483 46.6104 73.2326 46.8304C73.0623 47.0061 72.872 47.1612 72.6656 47.2928C72.5297 47.387 72.3713 47.4439 72.2063 47.4579C72.168 47.4661 72.1284 47.4654 72.0904 47.4558C72.0525 47.4461 72.0173 47.4278 71.9876 47.4023C71.958 47.3768 71.9346 47.3448 71.9194 47.3087C71.9042 47.2727 71.8977 47.2336 71.9001 47.1946C71.9029 47.0503 71.9409 46.9088 72.0107 46.7823C72.0832 46.6402 72.1654 46.4864 72.2574 46.321C72.3355 46.1675 72.412 46.0074 72.487 45.8407C72.5594 45.6786 72.5971 45.5031 72.5976 45.3256C72.5976 44.8944 72.2848 44.6784 71.662 44.6784C72.0307 44.2539 72.3689 43.804 72.6741 43.332C72.8917 43.0402 73.0296 42.6968 73.0739 42.3357C73.0746 42.1625 73.034 41.9916 72.9557 41.8371C72.8773 41.6826 72.7633 41.5489 72.6231 41.4469C72.2929 41.1995 71.8874 41.0732 71.4749 41.0893C71.0971 41.0904 70.7268 41.1938 70.4032 41.3884C70.067 41.5838 69.7653 41.8331 69.5101 42.1262C69.2614 42.4078 69.0577 42.7261 68.9062 43.0697C68.7711 43.3523 68.6958 43.6597 68.685 43.9726C68.6669 44.1414 68.689 44.312 68.7496 44.4706C68.8103 44.6292 68.9076 44.7712 69.0338 44.885C69.3219 45.078 69.6656 45.1712 70.0119 45.1501C69.452 45.7566 68.8338 46.3068 68.1663 46.7927C67.8452 47.0595 67.462 47.2413 67.052 47.3211C66.9998 47.3295 66.9462 47.3254 66.8959 47.3089C66.8456 47.2925 66.8 47.2643 66.7628 47.2267C66.7126 47.1516 66.6779 47.0673 66.6608 46.9786C66.9511 46.6644 67.1946 46.3101 67.3837 45.9266C67.5474 45.6333 67.6442 45.3076 67.6672 44.9727C67.6725 44.8703 67.6457 44.7687 67.5907 44.6821C67.5588 44.6442 67.5181 44.6145 67.4722 44.5958C67.4262 44.577 67.3764 44.5698 67.327 44.5746C67.1317 44.5713 66.9416 44.6379 66.7912 44.7623V44.7623ZM72.2517 42.1007C72.1767 42.4669 72.0099 42.8081 71.7669 43.0924C71.3725 43.6423 70.9435 44.1666 70.4826 44.6623C70.413 44.6657 70.3436 44.6541 70.2789 44.6285C70.2142 44.6029 70.1557 44.5637 70.1073 44.5137C70.059 44.4636 70.022 44.4039 69.9987 44.3384C69.9754 44.2729 69.9663 44.2032 69.9722 44.134C69.9867 43.9043 70.0537 43.681 70.1679 43.4811C70.3022 43.2131 70.4648 42.96 70.6527 42.7263C70.8362 42.4921 71.0475 42.2811 71.2821 42.0979C71.4568 41.9427 71.6781 41.8498 71.9115 41.8337C71.9517 41.8235 71.9939 41.8227 72.0345 41.8312C72.0752 41.8397 72.1135 41.8573 72.1463 41.8828C72.1791 41.9083 72.2056 41.9409 72.2239 41.9782C72.2422 42.0155 72.2517 42.0564 72.2517 42.0979V42.0979V42.1007ZM80.8073 47.6447C81.1707 47.4383 81.4981 47.1745 81.7769 46.8635C82.0362 46.5752 82.2585 46.2557 82.4384 45.9124C82.5822 45.6463 82.7018 45.3678 82.7957 45.0803C82.9045 45.0597 83.0102 45.0255 83.1104 44.9784C83.1616 44.9657 83.2077 44.9379 83.2426 44.8984C83.2776 44.859 83.2996 44.8099 83.306 44.7576C83.306 44.7123 83.272 44.6897 83.2039 44.6897C83.1468 44.6885 83.0896 44.6942 83.0338 44.7067C82.9778 44.7179 82.9209 44.7236 82.8637 44.7236C82.8751 44.6104 82.8836 44.5 82.8892 44.3925C82.8949 44.2849 82.8977 44.1745 82.8977 44.0613C82.9131 43.6438 82.8068 43.2308 82.5915 42.8725C82.4085 42.5712 82.116 42.3522 81.775 42.2611C82.0424 41.9832 82.2947 41.6913 82.531 41.3865C82.7593 41.0928 82.9668 40.7835 83.152 40.461C83.3264 40.1596 83.4689 39.8408 83.5772 39.5099C83.6767 39.2085 83.7284 38.8933 83.7303 38.5759C83.7451 38.2426 83.6559 37.913 83.4751 37.6324C83.4147 37.5264 83.3284 37.4374 83.2244 37.3736C83.1203 37.3098 83.0018 37.2732 82.8798 37.2673C82.6536 37.281 82.4397 37.3742 82.2759 37.5305C82.052 37.7193 81.839 37.9205 81.638 38.1334C81.3086 38.4897 80.9991 38.8639 80.7109 39.2542C80.3959 39.6732 80.0925 40.1204 79.8008 40.5959C79.5091 41.0714 79.2312 41.5611 78.9672 42.0649C78.7064 42.5681 78.4767 43.0606 78.2783 43.5424C78.0887 43.9922 77.9308 44.4547 77.8058 44.9265C77.7007 45.3086 77.6436 45.7022 77.6356 46.0983C77.6134 46.357 77.6475 46.6174 77.7356 46.8617C77.8237 47.106 77.9637 47.3284 78.146 47.5135C78.5331 47.8298 79.0245 47.9903 79.5239 47.9636C79.9726 47.9737 80.4157 47.8636 80.8073 47.6447V47.6447ZM81.2666 45.8615C81.1 46.1366 80.9 46.3901 80.6712 46.6163C80.4782 46.8092 80.2575 46.9724 80.0163 47.1003C79.8312 47.2037 79.6243 47.2619 79.4124 47.2701C79.3038 47.2812 79.1942 47.2653 79.0933 47.2238C78.9923 47.1823 78.9033 47.1165 78.834 47.0324C78.7126 46.8459 78.6531 46.6261 78.6639 46.404C78.6695 46.073 78.721 45.7444 78.817 45.4275C78.9164 45.0785 79.0356 44.7355 79.1742 44.4C79.3897 44.2642 79.6193 44.1069 79.8631 43.9283C80.107 43.7497 80.359 43.5515 80.6192 43.3339C80.6239 43.7082 80.7662 44.0678 81.019 44.3444C81.2049 44.5543 81.4266 44.7297 81.6739 44.8623C81.5915 45.2147 81.454 45.5518 81.2666 45.8615V45.8615ZM80.3735 41.879C80.7421 41.2393 81.1021 40.6733 81.4537 40.1808C81.7421 39.7689 82.0515 39.3721 82.3808 38.992C82.5113 38.7992 82.6902 38.644 82.8996 38.5419C82.9292 38.5404 82.9587 38.5448 82.9865 38.5551C83.0143 38.5653 83.0397 38.581 83.0612 38.6013C83.1103 38.6735 83.1314 38.761 83.1208 38.8476C83.0953 39.1636 83.0025 39.4705 82.8486 39.7477C82.6298 40.1823 82.3736 40.597 82.0831 40.9874C81.3056 42.0431 80.4031 43.0011 79.3953 43.8405C79.6813 43.1676 80.008 42.5125 80.3735 41.879V41.879ZM81.5132 43.9849C81.4397 43.8102 81.4021 43.6225 81.4027 43.4329C81.3951 43.2704 81.4275 43.1084 81.4971 42.9612C81.5119 42.9182 81.5378 42.8799 81.5721 42.8501C81.6065 42.8203 81.6481 42.8 81.6928 42.7914C81.731 42.7992 81.7666 42.8165 81.7964 42.8417C81.8261 42.867 81.849 42.8993 81.8629 42.9357C81.9306 43.0833 81.9598 43.2456 81.9479 43.4075C81.9365 43.7463 81.8851 44.0826 81.7948 44.4095C81.6706 44.2917 81.5743 44.1475 81.5132 43.9877V43.9849ZM85.2726 48.3664C84.8506 48.5964 84.4518 48.8665 84.0819 49.1731C83.7271 49.4633 83.4201 49.8071 83.1718 50.1921C82.9357 50.5575 82.8115 50.9838 82.8146 51.4186C82.812 51.6448 82.8614 51.8684 82.9591 52.0725C83.0484 52.2598 83.1629 52.434 83.2994 52.5904C83.4138 52.7241 83.5487 52.8388 83.6991 52.9301C83.7954 52.9957 83.9064 53.0365 84.0223 53.049C84.2332 53.0296 84.434 52.95 84.6007 52.8197C84.8601 52.6388 85.0996 52.431 85.3152 52.1998C85.5815 51.9188 85.826 51.6179 86.0466 51.2997C86.2873 50.9559 86.5033 50.5956 86.6931 50.2213C86.885 49.8484 87.0431 49.4591 87.1656 49.058C87.2803 48.6894 87.3405 48.3061 87.3442 47.9202C87.6231 47.7975 87.893 47.6556 88.1522 47.4956C88.4238 47.3302 88.6773 47.1367 88.9083 46.9182C89.126 46.7146 89.3122 46.48 89.4611 46.2219C89.6012 45.9792 89.6746 45.7038 89.6738 45.4237C89.6738 45.2426 89.6171 45.152 89.5037 45.152C89.4709 45.1517 89.4387 45.1612 89.4114 45.1794C89.3841 45.1976 89.3629 45.2235 89.3505 45.2539C88.9093 46.1745 88.1972 46.9388 87.3092 47.4447C87.2501 47.0837 87.0555 46.7588 86.7649 46.5361C86.4756 46.3529 86.1377 46.2611 85.7953 46.2729C86.5832 45.7861 87.2989 45.1916 87.9216 44.5066C88.3894 44.0328 88.6677 43.4047 88.7041 42.7404C88.7084 42.5014 88.662 42.2641 88.568 42.0441C88.4839 41.8499 88.3625 41.6739 88.2108 41.5262C88.0686 41.388 87.9011 41.2785 87.7175 41.2035C87.545 41.1317 87.3601 41.0942 87.1732 41.0931C86.7661 41.1014 86.3634 41.1789 85.9824 41.3224C85.556 41.4729 85.1524 41.6815 84.7831 41.9422C84.4302 42.1874 84.1199 42.4886 83.8645 42.8338C83.6306 43.1387 83.5023 43.5112 83.4988 43.8953C83.4986 43.9953 83.51 44.095 83.5328 44.1925C83.5324 44.2267 83.5442 44.2599 83.566 44.2863C83.5878 44.3127 83.6182 44.3306 83.6519 44.3368C83.7059 44.3255 83.7541 44.2954 83.788 44.2519C84.0663 43.9172 84.3706 43.6049 84.6981 43.3178C85.0161 43.036 85.3544 42.7778 85.7102 42.5451C86.0164 42.3424 86.341 42.169 86.6798 42.0272C86.9319 41.9141 87.2032 41.85 87.4793 41.8385C87.5447 41.8281 87.6115 41.833 87.6746 41.8528C87.7377 41.8725 87.7954 41.9065 87.8432 41.9522C87.891 41.9979 87.9274 42.054 87.9499 42.1161C87.9724 42.1782 87.9801 42.2446 87.9726 42.3102C87.957 42.5432 87.8872 42.7694 87.7686 42.9706C87.5992 43.2767 87.3904 43.5593 87.1476 43.8113C86.829 44.1485 86.485 44.4607 86.1185 44.7453C85.6676 45.0966 85.1898 45.4121 84.6895 45.6888C84.4641 45.8139 84.2649 45.9811 84.1027 46.1813C83.9519 46.3683 83.8708 46.6017 83.873 46.8418C83.8769 46.9532 83.8912 47.0641 83.9155 47.1729C83.9124 47.2218 83.9271 47.2701 83.9567 47.3091C83.9864 47.3481 84.0292 47.3751 84.0772 47.3852C84.1387 47.3673 84.1963 47.3382 84.2473 47.2994C84.503 47.1127 84.7874 46.9687 85.0893 46.8729C85.3394 46.7912 85.6002 46.7464 85.8633 46.7399C85.9599 46.7276 86.058 46.7382 86.1497 46.771C86.2413 46.8038 86.3239 46.8578 86.3907 46.9286C86.4852 47.0673 86.5329 47.2326 86.5267 47.4003C86.5253 47.5277 86.5082 47.6545 86.4757 47.7777C86.0989 47.9381 85.6979 48.1343 85.2726 48.3664V48.3664ZM85.7451 49.5977C85.5013 50.038 85.2518 50.4468 84.9967 50.8242C84.7781 51.1518 84.5335 51.4613 84.2652 51.7498C84.1379 51.9259 83.9553 52.0544 83.7464 52.1149C83.6443 52.1149 83.5933 52.013 83.5933 51.8092C83.6068 51.576 83.6585 51.3465 83.7464 51.1299C83.869 50.8079 84.0319 50.5026 84.2312 50.2213C84.4783 49.8684 84.7604 49.5413 85.0732 49.2448C85.4464 48.8924 85.8639 48.5899 86.315 48.3447C86.1627 48.7778 85.9733 49.197 85.749 49.5977H85.7451ZM93.6836 46.7408C93.9815 46.3743 94.2462 45.9822 94.4746 45.569C94.7203 45.1283 94.9226 44.6647 95.0785 44.1849C95.2314 43.7333 95.3118 43.2605 95.3167 42.7838C95.3162 42.5709 95.2844 42.3592 95.2222 42.1555C95.1653 41.9587 95.0731 41.7739 94.95 41.6101C94.8353 41.4569 94.6906 41.3285 94.5247 41.2327C94.3567 41.1363 94.1657 41.0868 93.9719 41.0893C93.6803 41.0945 93.3943 41.1699 93.1383 41.3092C92.8621 41.4512 92.6049 41.6274 92.3728 41.8337V41.6988C92.3718 41.5215 92.349 41.345 92.3048 41.1733C92.3046 41.1097 92.2825 41.0481 92.2423 40.9988C92.202 40.9495 92.146 40.9155 92.0837 40.9025C91.8457 41.0103 91.6531 41.1979 91.5393 41.4328C91.2873 41.7856 91.0038 42.242 90.6887 42.8018C90.3737 43.3616 90.0392 43.9777 89.6851 44.6501C89.3335 45.3237 89.0046 45.9797 88.6984 46.6182C88.3922 47.2566 88.1229 47.8362 87.8904 48.357C87.658 48.8766 87.5004 49.254 87.4179 49.4892C87.3466 49.7047 87.2925 49.9256 87.2563 50.1496C87.2294 50.3198 87.2152 50.4916 87.2138 50.6638C87.2142 50.867 87.2517 51.0684 87.3244 51.2582C87.3341 51.3277 87.3644 51.3926 87.4114 51.4447C87.4584 51.4968 87.5199 51.5337 87.588 51.5507C87.6223 51.5452 87.6538 51.5289 87.6783 51.5044C87.7027 51.4798 87.7188 51.4481 87.7241 51.4139C88.1323 50.4258 88.5492 49.5021 88.9744 48.6429C89.3997 47.7837 89.8092 46.9704 90.203 46.203C90.2262 46.4682 90.3104 46.7244 90.4491 46.9517C90.5878 47.179 90.7772 47.3713 91.0025 47.5135C91.5181 47.8301 92.1157 47.988 92.7206 47.9673C93.0904 47.9596 93.4583 47.9118 93.8178 47.8249C94.2481 47.728 94.662 47.569 95.0464 47.3531C95.43 47.1406 95.7704 46.8584 96.0501 46.521C96.3332 46.1698 96.481 45.729 96.4668 45.2784C96.4668 45.0098 96.4038 44.8752 96.2778 44.8746C96.2358 44.8822 96.1971 44.9023 96.1667 44.9323C96.1363 44.9623 96.1158 45.0007 96.1077 45.0425C95.9664 45.3419 95.7985 45.628 95.6059 45.8973C95.4053 46.1791 95.1711 46.4354 94.9084 46.6606C94.6346 46.8929 94.3279 47.0837 93.9983 47.2267C93.6431 47.3812 93.2626 47.4694 92.8756 47.4871C93.1833 47.2829 93.4563 47.0309 93.6845 46.7408H93.6836ZM91.7444 43.583C91.908 43.3041 92.0958 43.0402 92.3057 42.7942C92.4898 42.5764 92.6888 42.3715 92.9011 42.1809C93.0682 42.0283 93.2506 41.8933 93.4455 41.7781C93.573 41.6953 93.7191 41.6454 93.8707 41.6328C94.1089 41.6328 94.228 41.8561 94.228 42.3027C94.2231 42.626 94.1745 42.9472 94.0834 43.2575C93.9841 43.615 93.8578 43.9645 93.7054 44.3028C93.5455 44.6569 93.3637 45.0007 93.161 45.3322C92.9747 45.642 92.7672 45.9386 92.5401 46.22C92.3578 46.4496 92.1494 46.6573 91.9192 46.8389C91.7729 46.9712 91.5882 47.0535 91.3919 47.0739C91.2975 47.0737 91.2054 47.0448 91.1279 46.991C91.0504 46.9372 90.9912 46.8612 90.9581 46.7729C90.8587 46.5578 90.8092 46.3229 90.8135 46.086C90.8166 45.8404 90.8483 45.596 90.908 45.3577C90.9767 45.0758 91.0648 44.799 91.1716 44.5293L91.7444 43.583ZM101.815 43.9604C101.815 43.9151 101.781 43.8924 101.713 43.8924C101.656 43.8912 101.598 43.8969 101.543 43.9094C101.487 43.9206 101.43 43.9263 101.373 43.9264L101.407 43.2659C101.412 43.0678 101.386 42.8701 101.33 42.6801C101.286 42.5417 101.222 42.4103 101.141 42.2895C101.068 42.1832 100.985 42.0837 100.894 41.9923C100.787 41.8954 100.69 41.7872 100.605 41.6696C100.479 41.4971 100.323 41.3478 100.146 41.228C99.9864 41.1342 99.8037 41.0872 99.6186 41.0922C99.1456 41.1021 98.6876 41.2595 98.3087 41.5422C97.8647 41.8551 97.4741 42.2374 97.152 42.6744C96.8097 43.131 96.5347 43.6343 96.3354 44.1689C96.1423 44.6559 96.0386 45.1736 96.0292 45.6973C96.0198 46.048 96.0896 46.3962 96.2334 46.7163C96.3566 46.9817 96.5299 47.221 96.7437 47.4211C96.9341 47.5992 97.1563 47.7404 97.3986 47.8371C97.6009 47.9217 97.8173 47.9677 98.0366 47.973C98.4224 47.9693 98.7984 47.851 99.1168 47.6334C99.4779 47.393 99.7993 47.0979 100.069 46.7587C100.649 46.0309 101.068 45.1888 101.298 44.2878C101.472 44.2683 101.634 44.1905 101.757 44.067C101.772 44.0542 101.784 44.0387 101.793 44.0212C101.802 44.0037 101.807 43.9846 101.808 43.9651V43.9651L101.815 43.9604ZM100.019 43.1876C99.9452 43.0131 99.9076 42.8253 99.9087 42.6357C99.9011 42.4731 99.9336 42.3111 100.003 42.164C100.018 42.1209 100.044 42.0825 100.078 42.0526C100.112 42.0228 100.154 42.0026 100.199 41.9941C100.237 42.002 100.273 42.0194 100.302 42.0446C100.332 42.0698 100.355 42.1021 100.369 42.1385C100.437 42.2861 100.466 42.4483 100.454 42.6102C100.443 42.9491 100.391 43.2854 100.301 43.6122C100.177 43.4931 100.081 43.3477 100.021 43.1867L100.019 43.1876ZM99.5855 45.4464C99.3862 45.8075 99.1527 46.1488 98.888 46.4653C98.6884 46.7084 98.4532 46.9202 98.1906 47.0937C98.01 47.2195 97.798 47.293 97.5782 47.306C97.2039 47.306 97.0168 47.0286 97.0168 46.4738C97.0215 46.1226 97.073 45.7736 97.1699 45.436C97.2772 45.049 97.4225 44.6735 97.6037 44.3151C97.7914 43.9406 98.0104 43.5827 98.2586 43.2452C98.4944 42.9193 98.7686 42.6228 99.0752 42.3621C99.0725 42.5746 99.113 42.7855 99.1942 42.982C99.2685 43.1608 99.3657 43.3292 99.4834 43.483C99.5858 43.6199 99.7059 43.7427 99.8407 43.8481C99.9453 43.9319 100.06 44.0032 100.181 44.0604C100.029 44.5404 99.8304 45.0044 99.5874 45.4454L99.5855 45.4464ZM105.232 41.0903C105.045 41.104 104.862 41.1466 104.688 41.2167C104.403 41.3261 104.134 41.473 103.888 41.6535C103.558 41.8935 103.255 42.1702 102.987 42.4781C102.651 42.8638 102.365 43.2902 102.136 43.7471C101.814 44.3483 101.64 45.0168 101.626 45.6983C101.6 46.3003 101.811 46.8887 102.213 47.338C102.437 47.5578 102.705 47.7276 103 47.8362C103.295 47.9448 103.609 47.9899 103.922 47.9683C104.352 47.9639 104.777 47.8754 105.173 47.7079C105.589 47.5401 105.98 47.3181 106.338 47.0475C106.669 46.7999 106.958 46.5023 107.197 46.1653C107.399 45.9014 107.515 45.5819 107.529 45.2501C107.534 45.1819 107.513 45.1141 107.469 45.0614C107.446 45.0311 107.412 45.0101 107.375 45.002C107.337 45.001 107.301 45.0119 107.27 45.0331C107.24 45.0543 107.217 45.0847 107.205 45.1199C107.02 45.4075 106.815 45.6817 106.592 45.9407C106.353 46.2212 106.088 46.4793 105.801 46.7116C105.519 46.9407 105.207 47.1311 104.874 47.2777C104.553 47.4217 104.205 47.496 103.853 47.4956C103.715 47.4989 103.577 47.4686 103.453 47.4073C103.328 47.3461 103.221 47.2556 103.139 47.1437C102.942 46.8583 102.847 46.5157 102.867 46.17C102.865 45.5942 102.996 45.0258 103.249 44.5085C103.486 44.0134 103.777 43.5463 104.117 43.1159C104.392 42.7631 104.702 42.4396 105.044 42.1508C105.206 41.9864 105.404 41.8626 105.622 41.7894C105.648 41.7842 105.675 41.7851 105.701 41.792C105.726 41.7989 105.75 41.8116 105.77 41.8292C105.79 41.8468 105.805 41.8687 105.815 41.8932C105.825 41.9177 105.829 41.9442 105.827 41.9705C105.817 42.1066 105.783 42.2397 105.725 42.363C105.657 42.5266 105.588 42.6929 105.52 42.8621C105.441 43.0423 105.367 43.2254 105.299 43.4094C105.237 43.5676 105.202 43.7356 105.197 43.9056C105.195 44.1428 105.27 44.3743 105.41 44.5661C105.46 44.6511 105.531 44.7225 105.615 44.7737C105.7 44.8249 105.796 44.8544 105.895 44.8595C105.989 44.7826 106.06 44.6805 106.099 44.5651C106.201 44.3689 106.306 44.1434 106.413 43.8915C106.521 43.6396 106.618 43.3858 106.703 43.1367C106.771 42.9616 106.814 42.7776 106.83 42.5904C106.823 42.3136 106.718 42.0484 106.533 41.8422C106.326 41.5938 106.075 41.3856 105.793 41.228C105.619 41.14 105.426 41.0938 105.231 41.0931V41.0931L105.232 41.0903ZM107.028 44.7548C106.867 44.8982 106.734 45.0703 106.637 45.2624C106.525 45.4784 106.442 45.708 106.39 45.9455C106.334 46.1884 106.305 46.4368 106.305 46.6861C106.298 46.9963 106.363 47.3039 106.494 47.5852C106.54 47.7002 106.62 47.7985 106.723 47.867C106.826 47.9354 106.948 47.9708 107.072 47.9683C107.467 47.9549 107.844 47.7948 108.127 47.5192C108.495 47.1879 108.818 46.8102 109.088 46.3955C109.389 45.9464 109.681 45.4577 109.964 44.9293C110.236 44.4135 110.497 43.9324 110.747 43.4858C110.959 43.0995 111.194 42.7268 111.453 42.3696C111.517 42.2513 111.609 42.1495 111.719 42.0719C111.83 41.9944 111.957 41.9432 112.09 41.9224C112.106 41.9199 112.123 41.9212 112.138 41.9261C112.153 41.931 112.168 41.9395 112.179 41.9507C112.191 41.962 112.199 41.9758 112.205 41.991C112.21 42.0062 112.212 42.0225 112.21 42.0385C112.173 42.3566 112.072 42.6639 111.912 42.9414C111.713 43.3446 111.501 43.778 111.274 44.2415C111.036 44.7057 110.817 45.1639 110.619 45.6162C110.444 45.9737 110.343 46.3625 110.321 46.7597C110.309 46.9264 110.334 47.0938 110.394 47.2497C110.455 47.4057 110.549 47.5463 110.67 47.6617C110.913 47.8701 111.226 47.9795 111.546 47.9683C111.876 47.9627 112.199 47.8803 112.491 47.7277C112.814 47.5672 113.112 47.3603 113.376 47.1135C113.633 46.8763 113.854 46.6022 114.031 46.3002C114.19 46.0431 114.279 45.748 114.286 45.4454C114.292 45.3378 114.266 45.2307 114.209 45.1388C114.195 45.1109 114.175 45.0866 114.15 45.0678C114.125 45.0489 114.095 45.0361 114.065 45.0303C114.031 45.0354 114 45.0509 113.975 45.0746C113.951 45.0983 113.935 45.129 113.929 45.1624C113.758 45.4593 113.583 45.7423 113.401 46.0115C113.235 46.2616 113.053 46.5014 112.857 46.7295C112.701 46.9146 112.524 47.0808 112.33 47.2248C112.204 47.3284 112.05 47.3915 111.887 47.406C111.798 47.4065 111.711 47.3777 111.641 47.3239C111.599 47.2833 111.567 47.2336 111.548 47.1788C111.529 47.1239 111.523 47.0654 111.53 47.0078C111.567 46.6911 111.672 46.3859 111.836 46.1124L112.498 44.8199C112.736 44.3547 112.957 43.8915 113.159 43.4263C113.341 43.0533 113.445 42.6472 113.465 42.2328C113.468 42.0798 113.437 41.9279 113.376 41.7878C113.314 41.6476 113.223 41.5223 113.108 41.4205C112.885 41.2052 112.585 41.0859 112.275 41.0884C112.107 41.1051 111.945 41.1556 111.797 41.2366C111.649 41.3177 111.52 41.4277 111.416 41.5601C111.078 41.9232 110.771 42.3136 110.497 42.7272C110.182 43.1895 109.873 43.6899 109.57 44.2283C109.267 44.7667 108.972 45.2677 108.685 45.7313C108.442 46.1365 108.169 46.5231 107.869 46.888C107.791 47.0095 107.689 47.1135 107.569 47.1934C107.449 47.2733 107.314 47.3274 107.171 47.3522C107.127 47.3523 107.084 47.3389 107.047 47.3138C107.011 47.2887 106.983 47.253 106.967 47.2116C106.926 47.1319 106.902 47.0439 106.899 46.9541C107.19 46.6401 107.433 46.2858 107.622 45.9021C107.786 45.6088 107.883 45.2831 107.906 44.9482C107.911 44.8458 107.884 44.7442 107.829 44.6576C107.797 44.6199 107.756 44.5907 107.709 44.5726C107.663 44.5545 107.613 44.5481 107.564 44.5538C107.367 44.5516 107.176 44.623 107.029 44.7538L107.028 44.7548ZM122.485 46.4408C122.178 46.6959 121.852 46.9271 121.51 47.1324C121.289 47.2664 121.054 47.3749 120.809 47.456C120.684 47.4988 120.555 47.5266 120.424 47.539C120.196 47.539 120.083 47.3701 120.083 47.0324C120.097 46.6122 120.202 46.2 120.39 45.8237C120.595 45.3784 120.823 44.9303 121.074 44.4793C121.314 44.039 121.536 43.6154 121.741 43.2084C121.924 42.88 122.03 42.5139 122.048 42.1385C122.053 41.9258 122.013 41.7144 121.929 41.5186C121.914 41.4532 121.88 41.3937 121.832 41.347C121.783 41.3004 121.722 41.2686 121.656 41.2554C121.565 41.2763 121.485 41.3309 121.433 41.4082C121.324 41.5339 121.224 41.6673 121.134 41.8073C121.026 41.9715 120.918 42.147 120.809 42.3338C120.701 42.5225 120.601 42.6989 120.51 42.8688C120.215 43.2055 119.9 43.5231 119.565 43.8198C119.212 44.1395 118.828 44.4239 118.419 44.6689C118.39 44.5309 118.334 44.4003 118.252 44.2849C118.171 44.1696 118.067 44.072 117.947 43.9981C117.709 43.8474 117.434 43.7679 117.152 43.7688C116.835 43.7618 116.523 43.8474 116.254 44.0151C116.126 44.1006 116.022 44.2189 115.955 44.3577C115.887 44.4965 115.858 44.6509 115.87 44.8048C115.857 44.9253 115.88 45.0468 115.934 45.1551C115.988 45.2634 116.073 45.354 116.177 45.4162C116.353 45.5213 116.554 45.5797 116.759 45.586C116.816 45.586 116.872 45.586 116.93 45.5775C116.988 45.569 117.043 45.5633 117.101 45.552C116.942 45.8532 116.75 46.1356 116.527 46.3936C116.355 46.5925 116.16 46.7701 115.946 46.9229C115.791 47.0349 115.621 47.1254 115.442 47.1918C115.332 47.2344 115.217 47.2599 115.099 47.2673C114.955 47.2786 114.81 47.2495 114.682 47.1833C114.628 47.1218 114.589 47.049 114.567 46.9703C114.544 46.8916 114.54 46.809 114.554 46.7285C114.567 46.5395 114.613 46.3543 114.69 46.1813C114.797 45.9173 114.916 45.6588 115.048 45.4067C115.197 45.1212 115.368 44.8152 115.562 44.4887C115.755 44.1642 115.955 43.8377 116.16 43.5122C116.479 43.0618 116.669 42.5324 116.707 41.9819C116.706 41.8895 116.697 41.7974 116.682 41.7064C116.665 41.6063 116.64 41.5081 116.605 41.413C116.574 41.3277 116.528 41.2489 116.468 41.1809C116.443 41.1511 116.411 41.1273 116.376 41.111C116.34 41.0947 116.302 41.0863 116.263 41.0865C116.218 41.0896 116.174 41.1036 116.135 41.1273C116.096 41.1509 116.063 41.1835 116.04 41.2224C115.652 41.7658 115.299 42.2951 114.98 42.8102C114.662 43.3254 114.392 43.8066 114.171 44.2538C113.974 44.6454 113.803 45.0502 113.661 45.4652C113.556 45.7528 113.496 46.0547 113.483 46.3606C113.471 46.5793 113.503 46.7982 113.577 47.0042C113.652 47.2102 113.767 47.3991 113.916 47.5598C114.093 47.7167 114.299 47.8365 114.523 47.9119C114.747 47.9873 114.984 48.0167 115.22 47.9985C115.571 47.9909 115.916 47.9045 116.229 47.7456C116.587 47.5735 116.92 47.3545 117.22 47.0946C117.526 46.8319 117.794 46.5277 118.016 46.1908C118.225 45.8854 118.367 45.54 118.435 45.1765C118.872 44.9717 119.289 44.7282 119.683 44.4491C119.492 44.8537 119.324 45.2685 119.178 45.6917C119.063 46.0034 118.996 46.3313 118.982 46.6634C118.963 47.0245 119.079 47.3798 119.307 47.6607C119.443 47.7942 119.606 47.8966 119.786 47.9608C119.965 48.0249 120.157 48.0494 120.346 48.0324C120.622 48.0255 120.893 47.9709 121.15 47.8711C121.466 47.7546 121.769 47.607 122.056 47.4305C122.37 47.2394 122.67 47.0266 122.955 46.7936C123.228 46.5719 123.488 46.3337 123.733 46.0804V46.1483C123.75 46.6592 123.897 47.1573 124.161 47.5956C124.272 47.7414 124.417 47.8576 124.584 47.9338C124.751 48.01 124.934 48.0439 125.117 48.0324C125.585 48.025 126.041 47.8878 126.435 47.6362C126.914 47.3249 127.299 46.89 127.55 46.3776C127.633 46.2294 127.697 46.0707 127.739 45.9058C127.771 45.773 127.788 45.6369 127.79 45.5001C127.791 45.4047 127.78 45.3095 127.756 45.2171C127.753 45.1865 127.739 45.1578 127.718 45.1361C127.696 45.1144 127.667 45.101 127.637 45.0982C127.599 45.0972 127.563 45.1081 127.532 45.1293C127.502 45.1505 127.479 45.181 127.466 45.2161C127.346 45.4884 127.21 45.7534 127.058 46.0096C126.91 46.2643 126.745 46.5092 126.565 46.7427C126.415 46.941 126.241 47.1195 126.046 47.2739C125.911 47.3924 125.741 47.4634 125.561 47.4758C125.505 47.478 125.45 47.4678 125.398 47.446C125.347 47.4241 125.301 47.3911 125.264 47.3494C125.174 47.227 125.115 47.0845 125.093 46.9342C125.046 46.6847 125.012 46.4327 124.991 46.1794C124.963 45.865 124.932 45.4835 124.897 45.035C125.373 44.5614 125.787 44.1387 126.139 43.7669C126.445 43.4468 126.735 43.1108 127.006 42.7602C127.202 42.5102 127.375 42.2438 127.525 41.9639C127.635 41.762 127.702 41.5393 127.721 41.3101C127.721 41.1516 127.681 41.0723 127.602 41.0723C127.451 41.1615 127.322 41.2822 127.224 41.4262C127.019 41.6608 126.781 41.9438 126.509 42.2753C126.226 42.6024 125.934 42.9414 125.633 43.2924C125.333 43.6433 125.063 43.9374 124.825 44.1745C124.801 43.9217 124.784 43.6754 124.773 43.4377C124.762 43.1999 124.728 42.9905 124.705 42.7772C124.691 42.3172 124.535 41.8726 124.26 41.5035C124.169 41.3835 124.054 41.2848 123.921 41.2144C123.788 41.144 123.641 41.1035 123.491 41.0959C123.32 41.0959 123.234 41.1582 123.234 41.2846C123.231 41.3083 123.238 41.3322 123.252 41.3516C123.305 41.6097 123.345 41.8705 123.371 42.1328C123.405 42.4473 123.439 42.787 123.474 43.1518C123.508 43.5166 123.542 43.8843 123.576 44.2547C123.598 44.6283 123.627 44.9743 123.662 45.2926C123.301 45.7058 122.907 46.0897 122.485 46.4408V46.4408ZM116.597 45.102C116.557 45.0638 116.526 45.0176 116.506 44.9663C116.485 44.915 116.476 44.8599 116.478 44.8048C116.477 44.7453 116.491 44.6865 116.517 44.6333C116.544 44.5801 116.583 44.5341 116.631 44.4991C116.722 44.4239 116.836 44.3819 116.955 44.3802C117.05 44.3779 117.143 44.4078 117.218 44.4651C117.26 44.507 117.292 44.5578 117.311 44.6137C117.33 44.6696 117.336 44.7292 117.329 44.7878C117.337 44.8996 117.313 45.0115 117.261 45.1105C117.164 45.1793 117.047 45.2159 116.928 45.2151C116.809 45.2142 116.693 45.176 116.597 45.1058V45.102ZM2.77136 26.7464L7.17817 0.312768C7.21268 0.224177 7.27315 0.148062 7.35173 0.0943948C7.43032 0.0407274 7.5233 0.012011 7.61851 0.012011C7.71372 0.012011 7.80676 0.0407274 7.88534 0.0943948C7.96393 0.148062 8.0244 0.224177 8.05891 0.312768C8.55411 1.02699 18.36 21.4157 18.36 21.4157C18.36 21.4157 18.635 21.9101 18.911 21.3054C19.1869 20.7006 28.9919 0.202375 28.9919 0.202375C28.9919 0.202375 29.8188 -0.401456 29.9842 0.476931C30.1495 1.35532 33.7294 25.3171 33.7294 25.3171C33.7294 25.3171 34.0054 27.2984 35.6583 27.6758L37.0352 27.9503C37.0352 27.9503 37.7516 28.2249 37.1458 28.5004H27.6707C27.5782 28.4978 27.4895 28.4636 27.4193 28.4035C27.3491 28.3433 27.3018 28.261 27.2851 28.1702C27.2784 28.1236 27.2821 28.0761 27.2958 28.0311C27.3095 27.9861 27.333 27.9447 27.3646 27.9098C27.3961 27.8748 27.435 27.8473 27.4784 27.829C27.5218 27.8107 27.5688 27.8022 27.6159 27.8041C27.9826 27.8041 29.1951 28.0966 29.2319 26.8512C29.2688 25.6058 26.9543 10.0713 26.9543 10.0713C26.9543 10.0713 26.8447 9.59951 26.6245 10.108C26.4043 10.6166 17.741 28.4636 17.741 28.4636C17.7017 28.516 17.65 28.5579 17.5906 28.5856C17.5312 28.6132 17.4658 28.6258 17.4004 28.6221C17.3349 28.6185 17.2713 28.5988 17.2153 28.5647C17.1593 28.5306 17.1127 28.4832 17.0795 28.4268C16.7856 27.9871 8.22809 10.6581 8.22809 10.6581C8.22809 10.6581 7.8614 10.2184 7.78769 10.694C7.71397 11.1695 5.9146 26.3747 5.9146 26.3747C5.9146 26.3747 5.54697 27.7305 8.11751 27.9871C8.11751 27.9871 9.03609 27.9145 9.07295 28.207C9.1098 28.4994 9.07295 28.6787 8.60042 28.6466H0.300053C0.204902 28.6232 0.121935 28.5651 0.0675392 28.4838C0.0131433 28.4024 -0.00877371 28.3037 0.00610842 28.207C-0.00342597 28.16 -0.00177573 28.1114 0.010896 28.0652C0.0235677 28.0189 0.0469104 27.9763 0.0790755 27.9407C0.111241 27.9051 0.151339 27.8775 0.196111 27.8602C0.240884 27.8429 0.289116 27.8362 0.336912 27.8409C0.74045 27.8041 1.65995 27.7673 1.65995 27.7673C1.93686 27.7579 2.20124 27.6498 2.40514 27.4625C2.60904 27.2752 2.73898 27.0212 2.77136 26.7464V26.7464ZM117.265 27.772C117.265 27.772 116.346 27.8088 115.942 27.8456C115.894 27.8409 115.846 27.8475 115.801 27.8648C115.756 27.8822 115.716 27.9098 115.684 27.9454C115.652 27.981 115.629 28.0237 115.616 28.0699C115.603 28.1162 115.602 28.1647 115.612 28.2117C115.597 28.3084 115.619 28.4071 115.673 28.4885C115.728 28.5699 115.81 28.628 115.906 28.6513H124.206C124.683 28.6881 124.719 28.5051 124.683 28.2117C124.647 27.9183 123.728 27.9918 123.728 27.9918C121.157 27.7352 121.525 26.3794 121.525 26.3794C121.525 26.3794 123.32 11.1751 123.397 10.6987C123.474 10.2222 123.838 10.6628 123.838 10.6628C123.838 10.6628 132.396 27.9918 132.69 28.4315C132.723 28.488 132.77 28.5353 132.826 28.5694C132.882 28.6035 132.945 28.6232 133.011 28.6269C133.076 28.6305 133.141 28.6179 133.201 28.5903C133.26 28.5626 133.312 28.5207 133.351 28.4683C133.351 28.4683 142.018 10.626 142.235 10.1128C142.451 9.59951 142.566 10.076 142.566 10.076C142.566 10.076 144.878 25.6105 144.842 26.8559C144.806 28.1013 143.594 27.8088 143.226 27.8088C143.179 27.8069 143.132 27.8155 143.089 27.8337C143.045 27.852 143.006 27.8795 142.975 27.9145C142.943 27.9494 142.92 27.9908 142.906 28.0358C142.892 28.0808 142.889 28.1283 142.895 28.1749C142.912 28.2657 142.959 28.3481 143.03 28.4082C143.1 28.4683 143.189 28.5025 143.281 28.5051H152.756C153.363 28.2296 152.646 27.955 152.646 27.955L151.269 27.6805C149.617 27.2955 149.342 25.3218 149.342 25.3218C149.342 25.3218 145.761 1.35721 145.595 0.481653C145.43 -0.393903 144.603 0.207098 144.603 0.207098C144.603 0.207098 134.797 20.7053 134.521 21.3101C134.245 21.9148 133.971 21.4205 133.971 21.4205C133.971 21.4205 124.165 1.0317 123.67 0.317482C123.636 0.228589 123.575 0.152162 123.497 0.0982602C123.418 0.0443583 123.325 0.0155093 123.229 0.0155093C123.134 0.0155093 123.041 0.0443583 122.962 0.0982602C122.883 0.152162 122.823 0.228589 122.788 0.317482L118.382 26.7512C118.349 27.0269 118.219 27.2818 118.014 27.4692C117.808 27.6567 117.543 27.7641 117.265 27.772V27.772ZM42.8756 25.8671C42.7036 26.3394 42.4175 26.7621 42.0426 27.0975C41.6677 27.4329 41.2157 27.6708 40.7266 27.7899L39.6804 27.9003C39.6002 27.882 39.5161 27.8945 39.4447 27.9352C39.3733 27.9759 39.3198 28.0419 39.2948 28.1202C39.2694 28.1712 39.2586 28.2284 39.2638 28.2852C39.269 28.342 39.29 28.3963 39.3244 28.4419C39.3587 28.4875 39.405 28.5227 39.4582 28.5435C39.5114 28.5644 39.5694 28.57 39.6256 28.5598H47.7238C47.7238 28.5598 48.2908 28.6145 48.2908 28.2485C48.3072 28.1959 48.3094 28.1399 48.2975 28.0862C48.2855 28.0324 48.2596 27.9827 48.2225 27.942C48.1853 27.9013 48.1381 27.871 48.0857 27.8541C48.0332 27.8372 47.9771 27.8343 47.9232 27.8456H46.6379C46.4785 27.858 46.3186 27.8299 46.173 27.7638C46.0275 27.6977 45.9012 27.5959 45.8058 27.4678C45.7105 27.3397 45.6492 27.1895 45.6278 27.0313C45.6064 26.8732 45.6255 26.7122 45.6834 26.5634C46.0132 25.2812 48.2908 19.2721 48.2908 19.2721C48.3425 19.1606 48.4256 19.0666 48.53 19.0016C48.6344 18.9365 48.7556 18.9033 48.8787 18.9061H56.5534C56.6849 18.8634 56.8279 18.874 56.9516 18.9356C57.0754 18.9972 57.1699 19.1048 57.215 19.2353L60.0435 26.5266C60.1174 26.6399 60.1607 26.7704 60.1691 26.9054C60.1776 27.0403 60.1509 27.1752 60.0918 27.2968C60.0326 27.4184 59.943 27.5227 59.8315 27.5995C59.72 27.6764 59.5905 27.7231 59.4557 27.7352C58.3537 27.9192 58.0598 27.9918 58.0598 27.9918C57.9989 28.0022 57.9435 28.0335 57.9033 28.0804C57.863 28.1273 57.8405 28.1868 57.8396 28.2485C57.8396 28.2485 57.7659 28.6145 58.0598 28.6145H67.7939C67.8983 28.5917 67.9931 28.5372 68.0654 28.4585C68.1376 28.3798 68.1837 28.2807 68.1974 28.1749C68.1916 28.1238 68.1754 28.0744 68.1498 28.0297C68.1241 27.9851 68.0897 27.9462 68.0484 27.9153C68.0072 27.8845 67.96 27.8624 67.9099 27.8504C67.8598 27.8384 67.8078 27.8368 67.757 27.8456C67.757 27.8456 65.2999 28.0277 63.8634 24.2179L54.2427 0.367489C54.1912 0.291315 54.121 0.229555 54.0388 0.188065C53.9567 0.146576 53.8652 0.126729 53.7732 0.130415C53.6812 0.134101 53.5916 0.161198 53.513 0.209127C53.4344 0.257057 53.3695 0.324233 53.3242 0.404286C52.8838 1.02699 42.8756 25.8671 42.8756 25.8671ZM53.034 7.94652L56.303 16.7389C56.324 16.7872 56.3325 16.8399 56.3278 16.8924C56.3231 16.9448 56.3054 16.9952 56.2761 17.0391C56.2469 17.0829 56.2072 17.1187 56.1605 17.1432C56.1139 17.1677 56.0618 17.1802 56.0091 17.1795C56.0091 17.1795 49.9862 17.2163 49.5449 17.1795C49.1035 17.1427 49.3616 16.6294 49.3616 16.6294L52.5199 7.98331C52.7732 7.32853 53.034 7.94652 53.034 7.94652ZM68.7125 1.21002C68.7125 1.57609 69.2634 1.5393 69.2634 1.5393C70.0408 1.57316 70.8024 1.77012 71.4985 2.11734C72.1946 2.46457 72.8096 2.95428 73.3035 3.55459C73.3035 3.55459 79.6571 13.4461 80.3914 14.399C81.1257 15.352 80.5748 15.7916 80.5748 15.7916C80.5748 15.7916 74.1843 24.8415 73.0824 26.2332C72.737 26.6974 72.3028 27.0886 71.805 27.3841C71.3071 27.6797 70.7555 27.8737 70.182 27.955C70.0777 27.9572 69.9772 27.9947 69.897 28.0614C69.8168 28.1281 69.7616 28.22 69.7407 28.3221C69.7407 28.5787 70.2548 28.5419 70.2548 28.5419C70.9532 28.4315 72.8622 28.3947 72.8622 28.3947C73.708 28.2843 77.3039 28.6513 77.9314 28.5787C78.559 28.506 78.2981 28.2485 78.2981 28.2485C78.2613 27.955 77.3795 27.955 77.3795 27.955C75.4705 27.6984 76.2786 26.3068 76.2786 26.3068C76.2786 26.3068 81.5302 18.0984 81.8969 17.5503C82.2636 17.0021 82.411 17.5503 82.411 17.5503C82.411 17.5503 87.3329 25.2803 88.1758 26.5993C89.0188 27.9183 87.1845 27.772 86.8169 27.8088C86.6934 27.8037 86.5712 27.8359 86.4663 27.9012C86.3615 27.9665 86.2788 28.0619 86.229 28.1749C86.2115 28.2259 86.2086 28.2809 86.2208 28.3335C86.2329 28.3861 86.2596 28.4342 86.2978 28.4725C86.336 28.5107 86.3841 28.5374 86.4368 28.5497C86.4895 28.562 86.5445 28.5593 86.5957 28.5419C86.9633 28.5051 89.9384 28.3947 90.6727 28.3579C91.407 28.3211 97.0263 28.6872 97.0263 28.6872C97.5772 28.6872 97.5404 28.5051 97.5772 28.3221C97.2661 28.1361 96.9116 28.0346 96.549 28.0277C95.8823 27.9587 95.2394 27.7421 94.6672 27.3937C94.095 27.0452 93.6078 26.5736 93.2413 26.0134C93.2413 26.0134 85.4191 14.5462 85.0193 13.8867C84.8972 13.7637 84.8174 13.6052 84.791 13.434C84.7647 13.2628 84.7934 13.0877 84.8729 12.9338C84.8729 12.9338 92.4749 2.60166 92.7329 2.08935C92.8285 1.94035 92.9683 1.82489 93.1328 1.75909C93.2973 1.69329 93.4784 1.68043 93.6506 1.72233C94.2655 1.71458 94.8793 1.66572 95.4877 1.57609C95.8544 1.46571 95.7807 1.28267 95.7807 1.28267C95.7438 0.87886 94.9727 0.916599 94.9727 0.916599C94.9727 0.916599 92.1082 0.916601 91.5941 0.990193C91.08 1.06379 87.3707 0.879801 87.3707 0.879801C87.2746 0.891367 87.1832 0.927971 87.1057 0.985932C87.0283 1.04389 86.9674 1.12117 86.9293 1.21002C86.936 1.30508 86.9768 1.39453 87.0444 1.46183C87.112 1.52912 87.2017 1.56971 87.297 1.57609C87.7673 1.54347 88.2397 1.59328 88.6928 1.72328C88.8143 1.75806 88.9269 1.81877 89.0227 1.90119C89.1184 1.98362 89.1951 2.0858 89.2475 2.2007C89.2999 2.3156 89.3267 2.44047 89.3261 2.56671C89.3254 2.69294 89.2973 2.81754 89.2438 2.93189C89.2438 2.93189 84.0649 10.6628 83.7341 11.1751C83.4033 11.6874 83.1104 11.1025 83.1104 11.1025C83.1104 11.1025 78.0421 2.85829 77.8578 2.27239C77.8233 2.20866 77.8047 2.13758 77.8035 2.06516C77.8023 1.99273 77.8187 1.9211 77.8511 1.85631C77.8836 1.79153 77.9312 1.73549 77.9899 1.69296C78.0487 1.65042 78.1168 1.62264 78.1885 1.61195H79.4379C79.4955 1.61501 79.5529 1.60336 79.6047 1.57809C79.6566 1.55283 79.7011 1.5148 79.7341 1.46758C79.7671 1.42036 79.7875 1.36552 79.7934 1.30824C79.7993 1.25096 79.7905 1.19312 79.7677 1.1402C79.7677 0.84678 79.3642 0.920371 79.3642 0.920371H69.2634C68.9326 0.953393 68.7125 0.843004 68.7125 1.21002ZM100.554 1.61289L102.06 1.68649C103.713 1.75913 103.528 4.25088 103.528 4.25088C103.528 4.25088 103.419 25.5369 103.235 26.7464C103.052 27.956 101.362 27.9182 100.959 27.9182C100.555 27.9182 100.297 27.955 100.26 28.2485C100.223 28.5419 100.48 28.6872 100.848 28.6872C101.216 28.6872 103.305 28.6513 105.108 28.5419C106.912 28.4325 111.278 28.7249 111.793 28.7249C112.308 28.7249 112.197 28.3221 112.197 28.3221C112.197 28.0286 111.536 28.0277 111.536 28.0277L109.515 27.9182C108.082 27.6984 108.119 25.0604 108.119 25.0604C108.119 25.0604 107.936 5.97275 108.119 3.62818C108.303 1.28362 110.104 1.72328 110.617 1.64686C111.13 1.57044 111.351 1.46382 111.168 1.09775C110.985 0.731676 109.663 0.914713 109.663 0.914713C106.641 1.14278 103.605 1.10584 100.59 0.804321C100.549 0.805035 100.508 0.814326 100.47 0.831602C100.432 0.848878 100.398 0.873765 100.371 0.9047C100.343 0.935635 100.322 0.971946 100.309 1.01134C100.297 1.05074 100.292 1.09236 100.296 1.1336C100.296 1.1336 100.192 1.61289 100.554 1.61289V1.61289Z" fill="black"/>
</svg>
