<svg width="135" height="33" viewBox="0 0 135 33" fill="none" xmlns="http://www.w3.org/2000/svg">
<path fill-rule="evenodd" clip-rule="evenodd" d="M12.0037 0C9.49491 0 6.52513 2.36619 4.07263 6.34172C1.5195 10.4625 0.115227 15.1655 0 19.9821C0 26.4635 3.70116 33 12.0037 33C20.2837 33 23.9963 26.4635 23.9963 19.9821C23.8798 15.1672 22.4798 10.4654 19.935 6.34172C17.46 2.36179 14.5012 0 12.0037 0ZM76.8038 9.72435H85.1962V31.2355H94.1962V9.71991H102.6V1.76003H76.8038V9.71662V9.72435ZM121.793 9.72435H135V1.76003H121.804C109.665 1.76003 103.196 7.68377 103.196 16.494C103.196 25.3041 109.665 31.2278 121.804 31.2278H135V23.2713H121.793C116.19 23.2713 112.5 21.3011 112.5 16.494C112.5 11.6868 116.19 9.71991 121.793 9.71991V9.72435ZM58.5 1.76003L53.6962 19.3485L48.9037 1.76003H32.9963V31.2278H41.9963V7.26021L48.5324 31.2289H58.8601L65.3961 7.24812V31.2289H74.3961V1.76003H58.5Z" fill="#E30611"/>
</svg>
