<svg width="120" height="120" viewBox="0 0 120 120" fill="none" xmlns="http://www.w3.org/2000/svg">
<path d="M12.8608 119.996C11.1719 119.996 9.49963 119.663 7.93949 119.016C6.37935 118.369 4.96188 117.421 3.76801 116.227C2.57414 115.032 1.62725 113.614 0.981405 112.054C0.335559 110.493 0.0034044 108.821 0.00390682 107.132V59.9732C0.00390667 56.563 1.35834 53.2924 3.76936 50.8807C6.18038 48.469 9.45057 47.1136 12.8608 47.1125C14.55 47.112 16.2227 47.4443 17.7835 48.0904C19.3443 48.7365 20.7625 49.6837 21.9571 50.878C23.1518 52.0723 24.0994 53.4902 24.746 55.0508C25.3925 56.6114 25.7253 58.284 25.7253 59.9732V107.132C25.7258 108.821 25.3934 110.494 24.7471 112.055C24.1007 113.616 23.1532 115.035 21.9585 116.229C20.7638 117.424 19.3454 118.372 17.7844 119.018C16.2234 119.664 14.5503 119.997 12.8608 119.996Z" fill="url(#paint0_linear_832_181)"/>
<path d="M60 1.21968e-07C48.1331 1.21968e-07 36.5328 3.51894 26.6658 10.1118C16.7989 16.7047 9.10851 26.0754 4.56725 37.039C0.0259971 48.0025 -1.1622 60.0665 1.15291 71.7054C3.46802 83.3443 9.18247 94.0352 17.5736 102.426C25.9648 110.818 36.6557 116.532 48.2946 118.847C59.9335 121.162 71.9974 119.974 82.961 115.433C93.9246 110.891 103.295 103.201 109.888 93.3342C116.481 83.4672 120 71.8669 120 60C120.001 52.1205 118.449 44.3181 115.434 37.0384C112.419 29.7586 107.999 23.1441 102.428 17.5725C96.8559 12.0009 90.2414 7.58131 82.9616 4.5662C75.6818 1.5511 67.8795 -0.000502282 60 1.21968e-07ZM60 93.3835C53.3963 93.3842 46.9407 91.4266 41.4496 87.7583C35.9585 84.0899 31.6786 78.8756 29.1511 72.7747C26.6236 66.6738 25.9621 59.9604 27.2502 53.4836C28.5384 47.0067 31.7183 41.0573 36.3878 36.3878C41.0573 31.7182 47.0067 28.5383 53.4836 27.2502C59.9604 25.9621 66.6738 26.6236 72.7747 29.151C78.8756 31.6785 84.09 35.9585 87.7583 41.4496C91.4267 46.9407 93.3842 53.3963 93.3835 60C93.3825 68.8535 89.865 77.3442 83.6046 83.6045C77.3442 89.8649 68.8535 93.3824 60 93.3835Z" fill="#0786C3"/>
<defs>
<linearGradient id="paint0_linear_832_181" x1="12.8646" y1="119.996" x2="12.8646" y2="47.1125" gradientUnits="userSpaceOnUse">
<stop stop-color="#0786C3"/>
<stop offset="0.12" stop-color="#0782BD"/>
<stop offset="0.29" stop-color="#0675AD"/>
<stop offset="0.47" stop-color="#056092"/>
<stop offset="0.67" stop-color="#03426C"/>
<stop offset="0.88" stop-color="#011D3C"/>
<stop offset="1" stop-color="#00051D"/>
</linearGradient>
</defs>
</svg>
